<svg width="1655" height="3027" viewBox="0 0 1655 3027" fill="none" xmlns="http://www.w3.org/2000/svg">
<path d="M473.999 2996.5C666.015 2520.48 731.447 2659.61 938.619 2511.62C1111.34 2388.26 1181.99 2390.45 1310.86 2259.46C1590.49 1975.19 1783.32 1430.66 1543.01 1166.74C1424.64 1036.74 1274.63 1084.83 990.648 1022.64C735.189 966.702 383.842 822.064 1.99952 418.25" stroke="url(#paint0_linear_237_5068)" stroke-width="5" stroke-miterlimit="10"/>
<path d="M488.499 2992.5C653.522 2529.49 751.402 2674.23 945.288 2526.32C1108.47 2401.87 1173.73 2391.75 1300.38 2252.62C1566.06 1960.74 1751.03 1449.35 1526.81 1185.07C1411.33 1048.93 1263.88 1079.9 980.735 1007.04C731.455 942.894 386.116 795.303 7.69856 398.45" stroke="url(#paint1_linear_237_5068)" stroke-width="5" stroke-miterlimit="10"/>
<path d="M568.999 2952.5C707.037 2502.51 771.417 2688.67 951.957 2541C1105.76 2415.2 1165.47 2393.28 1289.9 2245.75C1541.94 1946.91 1719.17 1467.23 1510.61 1203.35C1397.94 1060.8 1253.28 1075.17 970.831 991.404C727.79 919.308 388.416 768.508 13.4404 378.59" stroke="url(#paint2_linear_237_5068)" stroke-width="5" stroke-miterlimit="10"/>
<path d="M572.5 2956C683.553 2519.03 791.492 2702.86 958.677 2555.68C1103.21 2428.37 1157.28 2395.06 1279.41 2238.85C1518.17 1933.63 1687.79 1484.33 1494.41 1221.61C1384.55 1072.34 1242.8 1070.66 960.917 975.741C724.177 896.032 390.716 741.687 19.1566 358.764" stroke="url(#paint3_linear_237_5068)" stroke-width="5" stroke-miterlimit="10"/>
<path d="M619.999 2945C704.051 2521.01 811.567 2716.75 965.303 2570.35C1100.8 2441.31 1149.16 2396.98 1268.93 2232.03C1494.74 1920.97 1656.93 1500.82 1478.21 1239.95C1371.13 1083.66 1232.39 1066.47 951.004 960.152C720.581 873.087 393.008 714.932 24.9157 338.986" stroke="url(#paint4_linear_237_5068)" stroke-width="5" stroke-miterlimit="10"/>
<path d="M689.499 2992.5C746.567 2581.56 831.651 2730.33 971.972 2585.03C1098.53 2453.98 1141.16 2399.21 1258.44 2225.17C1471.71 1908.73 1626.59 1516.63 1462.01 1258.25C1357.8 1094.65 1222.03 1062.56 941.091 944.523C716.976 850.395 395.308 688.145 30.5889 319.16" stroke="url(#paint5_linear_237_5068)" stroke-width="5" stroke-miterlimit="10"/>
<path d="M695.499 2973C725.539 2575.08 851.649 2743.53 978.641 2599.71C1096.39 2466.36 1133.3 2401.59 1247.96 2218.31C1449.05 1896.88 1596.79 1531.87 1445.8 1276.55C1344.58 1105.38 1211.67 1058.84 931.186 928.894C713.337 827.969 397.608 661.324 36.3137 299.343" stroke="url(#paint6_linear_237_5068)" stroke-width="5" stroke-miterlimit="10"/>
<path d="M772.5 3022C775.581 2637.1 871.553 2756.28 985.31 2614.35C1094.31 2478.36 1125.61 2404.07 1237.48 2211.42C1426.78 1885.36 1567.54 1546.57 1429.6 1294.82C1331.52 1115.81 1201.3 1055.42 921.273 913.232C709.655 805.818 399.934 634.573 42.0299 279.518" stroke="url(#paint7_linear_237_5068)" stroke-width="5" stroke-miterlimit="10"/>
<path d="M811.499 2985C787.596 2613.12 891.268 2768.66 991.987 2629.06C1092.27 2490.02 1118.16 2406.83 1226.99 2204.59C1404.88 1874.15 1538.84 1560.88 1413.4 1313.15C1318.68 1126.04 1190.83 1052.34 911.36 897.637C705.896 783.897 402.2 607.786 47.746 259.648" stroke="url(#paint8_linear_237_5068)" stroke-width="5" stroke-miterlimit="10"/>
<path d="M844.499 3012C793.612 2653.13 910.699 2780.55 998.63 2643.74C1090.16 2501.32 1110.79 2409.67 1216.49 2197.73C1383.32 1863.19 1510.64 1574.82 1397.17 1331.45C1306.08 1136.06 1180.24 1049.51 901.421 882.008C702.016 762.209 404.475 580.991 53.4365 239.874" stroke="url(#paint9_linear_237_5068)" stroke-width="5" stroke-miterlimit="10"/>
<path d="M886.499 3015.5C808.619 2669.61 929.856 2791.97 1005.33 2658.4C1087.96 2512.17 1103.74 2412.6 1206.03 2190.86C1362.17 1852.37 1483.01 1588.44 1381 1349.74C1293.86 1145.84 1169.56 1046.96 891.534 866.376C698.085 740.732 406.801 554.201 59.1956 220.045" stroke="url(#paint10_linear_237_5068)" stroke-width="5" stroke-miterlimit="10"/>
<path d="M920.499 3010.5C815.626 2677.67 948.575 2802.96 1011.99 2673.08C1085.48 2522.61 1096.91 2415.6 1195.55 2184.01C1341.32 1841.69 1455.85 1601.81 1364.8 1368.04C1282 1155.44 1158.67 1044.67 881.629 850.747C694.008 719.43 409.092 527.414 64.9031 200.228" stroke="url(#paint11_linear_237_5068)" stroke-width="5" stroke-miterlimit="10"/>
<path d="M951.999 3016.5C820.133 2696.7 966.814 2813.57 1018.67 2687.76C1082.61 2532.65 1090.31 2418.74 1185.07 2177.14C1320.79 1831.09 1429.16 1615.02 1348.6 1386.33C1270.58 1164.9 1147.59 1042.63 871.716 835.119C689.803 698.291 411.392 500.628 70.6193 180.402" stroke="url(#paint12_linear_237_5068)" stroke-width="5" stroke-miterlimit="10"/>
<path d="M978.999 3009.5C820.148 2702.71 984.52 2823.86 1025.34 2702.44C1079.16 2542.34 1083.96 2421.9 1174.58 2170.3C1300.54 1820.57 1402.88 1628.11 1332.4 1404.65C1259.66 1174.18 1136.27 1040.84 861.803 819.507C685.451 677.281 413.667 473.841 76.3613 160.585" stroke="url(#paint13_linear_237_5068)" stroke-width="5" stroke-miterlimit="10"/>
<path d="M1006 3017.5C820.155 2723.73 1001.65 2833.94 1032.01 2717.15C1074.97 2551.81 1077.85 2425.12 1164.1 2163.45C1280.58 1810.05 1377.11 1641.16 1316.2 1422.97C1249.31 1183.38 1124.7 1039.26 851.864 803.895C680.928 656.425 415.958 447.081 82.0259 140.794" stroke="url(#paint14_linear_237_5068)" stroke-width="5" stroke-miterlimit="10"/>
<path d="M1041 3024.5C828.162 2743.7 1018.2 2843.94 1038.68 2731.79C1069.85 2561.08 1071.99 2428.31 1153.61 2156.56C1260.9 1799.51 1351.69 1654.16 1300 1441.23C1239.59 1192.46 1112.89 1037.84 841.985 788.232C676.302 635.578 418.284 420.26 87.7764 120.942" stroke="url(#paint15_linear_237_5068)" stroke-width="5" stroke-miterlimit="10"/>
<path d="M1062.5 3018.5C822.678 2750.77 1065.22 2852.78 1045.36 2746.42C1012.86 2572.46 1066.37 2431.48 1143.13 2149.65C1241.4 1788.91 1326.66 1667.23 1283.8 1459.53C1230.58 1201.54 1100.73 1036.61 832.072 772.603C671.521 614.841 420.585 393.473 93.5269 101.115" stroke="url(#paint16_linear_237_5068)" stroke-width="5" stroke-miterlimit="10"/>
<path d="M1098 3006.5C831.193 2751.78 1075.26 2861.83 1052.02 2761.14C1011.31 2584.67 1060.99 2434.74 1132.65 2142.83C1222.17 1778.28 1301.99 1680.47 1267.59 1477.83C1222.29 1210.64 1088.31 1035.53 822.141 756.971C666.56 594.138 422.859 366.684 99.1916 81.2957" stroke="url(#paint17_linear_237_5068)" stroke-width="5" stroke-miterlimit="10"/>
<path d="M1093.5 3005.5C799.692 2763.8 1084.31 2872.06 1058.69 2775.82C1010.88 2596.17 1055.85 2437.95 1122.21 2135.97C1203.11 1767.58 1277.61 1693.87 1251.44 1496.13C1214.87 1219.82 1075.63 1034.57 812.288 741.342C661.531 573.47 425.202 339.888 104.968 61.4697" stroke="url(#paint18_linear_237_5068)" stroke-width="5" stroke-miterlimit="10"/>
<path d="M1132 3016.5C811.207 2787.82 1079.5 2886.57 1065.36 2790.49C1037.58 2601.23 1050.93 2441.1 1111.71 2129.1C1184.21 1756.78 1253.47 1707.5 1235.22 1514.42C1208.21 1229.14 1062.53 1033.71 802.332 725.697C656.252 552.787 427.477 313.085 110.641 41.6443" stroke="url(#paint19_linear_237_5068)" stroke-width="5" stroke-miterlimit="10"/>
<path d="M1150 3006.5C802.223 2790.84 1094.07 2898.54 1072.04 2805.17C1026.75 2613.22 1046.22 2444.23 1101.22 2122.25C1165.48 1745.9 1229.6 1721.44 1219.01 1532.72C1202.52 1238.67 1049.24 1032.92 792.445 710.085C650.888 532.128 429.794 286.316 116.383 21.8269" stroke="url(#paint20_linear_237_5068)" stroke-width="5" stroke-miterlimit="10"/>
<path d="M1101 2961C726.23 2758.35 1108.66 2911.32 1078.71 2819.85C1015.3 2626.31 1041.72 2447.3 1090.72 2115.39C1146.89 1734.9 1205.92 1735.7 1202.8 1551.01C1197.65 1248.47 1035.6 1032.19 782.523 694.447C645.404 511.435 432.069 259.529 122.082 2.00098" stroke="url(#paint21_linear_237_5068)" stroke-width="5" stroke-miterlimit="10"/>
<defs>
<linearGradient id="paint0_linear_237_5068" x1="1.99957" y1="1905.24" x2="1652" y2="1905.24" gradientUnits="userSpaceOnUse">
<stop stop-color="#4A3AFF"/>
<stop offset="1" stop-color="#4A3AFF" stop-opacity="0"/>
</linearGradient>
<linearGradient id="paint1_linear_237_5068" x1="7.6986" y1="1894.86" x2="1627.16" y2="1894.86" gradientUnits="userSpaceOnUse">
<stop stop-color="#4A3AFF"/>
<stop offset="1" stop-color="#4A3AFF" stop-opacity="0"/>
</linearGradient>
<linearGradient id="paint2_linear_237_5068" x1="13.4405" y1="1884.45" x2="1602.61" y2="1884.45" gradientUnits="userSpaceOnUse">
<stop stop-color="#4A3AFF"/>
<stop offset="1" stop-color="#4A3AFF" stop-opacity="0"/>
</linearGradient>
<linearGradient id="paint3_linear_237_5068" x1="19.1567" y1="1874.06" x2="1578.39" y2="1874.06" gradientUnits="userSpaceOnUse">
<stop stop-color="#4A3AFF"/>
<stop offset="1" stop-color="#4A3AFF" stop-opacity="0"/>
</linearGradient>
<linearGradient id="paint4_linear_237_5068" x1="24.9158" y1="1863.7" x2="1554.5" y2="1863.7" gradientUnits="userSpaceOnUse">
<stop stop-color="#4A3AFF"/>
<stop offset="1" stop-color="#4A3AFF" stop-opacity="0"/>
</linearGradient>
<linearGradient id="paint5_linear_237_5068" x1="30.589" y1="1853.31" x2="1530.96" y2="1853.31" gradientUnits="userSpaceOnUse">
<stop stop-color="#4A3AFF"/>
<stop offset="1" stop-color="#4A3AFF" stop-opacity="0"/>
</linearGradient>
<linearGradient id="paint6_linear_237_5068" x1="36.3138" y1="1842.92" x2="1507.79" y2="1842.92" gradientUnits="userSpaceOnUse">
<stop stop-color="#4A3AFF"/>
<stop offset="1" stop-color="#4A3AFF" stop-opacity="0"/>
</linearGradient>
<linearGradient id="paint7_linear_237_5068" x1="42.03" y1="1832.52" x2="1484.97" y2="1832.52" gradientUnits="userSpaceOnUse">
<stop stop-color="#4A3AFF"/>
<stop offset="1" stop-color="#4A3AFF" stop-opacity="0"/>
</linearGradient>
<linearGradient id="paint8_linear_237_5068" x1="47.7461" y1="1822.12" x2="1462.52" y2="1822.12" gradientUnits="userSpaceOnUse">
<stop stop-color="#4A3AFF"/>
<stop offset="1" stop-color="#4A3AFF" stop-opacity="0"/>
</linearGradient>
<linearGradient id="paint9_linear_237_5068" x1="53.4365" y1="1811.76" x2="1440.4" y2="1811.76" gradientUnits="userSpaceOnUse">
<stop stop-color="#4A3AFF"/>
<stop offset="1" stop-color="#4A3AFF" stop-opacity="0"/>
</linearGradient>
<linearGradient id="paint10_linear_237_5068" x1="59.1956" y1="1801.37" x2="1418.68" y2="1801.37" gradientUnits="userSpaceOnUse">
<stop stop-color="#4A3AFF"/>
<stop offset="1" stop-color="#4A3AFF" stop-opacity="0"/>
</linearGradient>
<linearGradient id="paint11_linear_237_5068" x1="64.9032" y1="1790.98" x2="1397.27" y2="1790.98" gradientUnits="userSpaceOnUse">
<stop stop-color="#4A3AFF"/>
<stop offset="1" stop-color="#4A3AFF" stop-opacity="0"/>
</linearGradient>
<linearGradient id="paint12_linear_237_5068" x1="70.6194" y1="1780.59" x2="1376.19" y2="1780.59" gradientUnits="userSpaceOnUse">
<stop stop-color="#4A3AFF"/>
<stop offset="1" stop-color="#4A3AFF" stop-opacity="0"/>
</linearGradient>
<linearGradient id="paint13_linear_237_5068" x1="76.3613" y1="1770.21" x2="1355.43" y2="1770.21" gradientUnits="userSpaceOnUse">
<stop stop-color="#4A3AFF"/>
<stop offset="1" stop-color="#4A3AFF" stop-opacity="0"/>
</linearGradient>
<linearGradient id="paint14_linear_237_5068" x1="82.0259" y1="1759.84" x2="1335.02" y2="1759.84" gradientUnits="userSpaceOnUse">
<stop stop-color="#4A3AFF"/>
<stop offset="1" stop-color="#4A3AFF" stop-opacity="0"/>
</linearGradient>
<linearGradient id="paint15_linear_237_5068" x1="87.7765" y1="1749.44" x2="1314.93" y2="1749.44" gradientUnits="userSpaceOnUse">
<stop stop-color="#4A3AFF"/>
<stop offset="1" stop-color="#4A3AFF" stop-opacity="0"/>
</linearGradient>
<linearGradient id="paint16_linear_237_5068" x1="93.527" y1="1739.03" x2="1295.16" y2="1739.03" gradientUnits="userSpaceOnUse">
<stop stop-color="#4A3AFF"/>
<stop offset="1" stop-color="#4A3AFF" stop-opacity="0"/>
</linearGradient>
<linearGradient id="paint17_linear_237_5068" x1="99.1916" y1="1728.66" x2="1339.26" y2="1728.66" gradientUnits="userSpaceOnUse">
<stop stop-color="#4A3AFF"/>
<stop offset="1" stop-color="#4A3AFF" stop-opacity="0"/>
</linearGradient>
<linearGradient id="paint18_linear_237_5068" x1="104.968" y1="1718.27" x2="1401.21" y2="1718.27" gradientUnits="userSpaceOnUse">
<stop stop-color="#4A3AFF"/>
<stop offset="1" stop-color="#4A3AFF" stop-opacity="0"/>
</linearGradient>
<linearGradient id="paint19_linear_237_5068" x1="110.641" y1="1707.88" x2="1463.15" y2="1707.88" gradientUnits="userSpaceOnUse">
<stop stop-color="#4A3AFF"/>
<stop offset="1" stop-color="#4A3AFF" stop-opacity="0"/>
</linearGradient>
<linearGradient id="paint20_linear_237_5068" x1="116.383" y1="1697.5" x2="1525.09" y2="1697.5" gradientUnits="userSpaceOnUse">
<stop stop-color="#4A3AFF"/>
<stop offset="1" stop-color="#4A3AFF" stop-opacity="0"/>
</linearGradient>
<linearGradient id="paint21_linear_237_5068" x1="122.082" y1="1687.11" x2="1587.04" y2="1687.11" gradientUnits="userSpaceOnUse">
<stop stop-color="#4A3AFF"/>
<stop offset="1" stop-color="#4A3AFF" stop-opacity="0"/>
</linearGradient>
</defs>
</svg>
