<svg width="1920" height="738" viewBox="0 0 1920 738" fill="none" xmlns="http://www.w3.org/2000/svg">
<path d="M-50.3369 235.262C86.8523 223.782 183.674 187.27 247.126 155.659C311.29 123.692 357.502 88.6249 441.944 69.7716C535.079 48.8235 595.933 58.2082 620.002 63.4872C653.373 70.819 651.299 75.8047 705.89 92.8145C810.756 125.494 830.677 110.956 877.664 132.616C955.57 168.521 932.339 223.007 1013.83 283.442C1072.84 327.224 1170.54 362.061 1258.92 337.908C1342.15 315.158 1351.51 258.032 1439.07 249.925C1475.04 246.595 1504.96 253.989 1564.76 268.779C1641.41 287.632 1692.88 310.885 1713.49 319.054C1774.56 343.291 1873.12 358.542 2034 310.675" stroke="url(#paint0_linear_237_5093)" stroke-width="2" stroke-miterlimit="10"/>
<path d="M-51.2585 253.738C81.4477 243.83 180.658 210.773 249.87 178.011C306.095 151.029 348.976 121.451 408.071 100.314C420.996 95.7054 434.612 91.2434 449.275 87.389C541.678 63.131 602.301 67.1321 627.607 69.5831C661.543 72.851 661.543 76.5797 715.044 93.1078C752.751 104.734 779.606 111.375 800.408 115.732C835.768 123.126 853.469 123.629 881.372 137.853C891.783 143.117 901.554 149.562 910.49 157.062C951.82 191.732 950.061 235.681 1018.62 282.269C1078.31 322.825 1175.36 353.493 1262.23 329.507C1269.11 327.603 1275.89 325.352 1282.55 322.762C1349.71 296.598 1364.79 250.575 1441.75 243.348C1449.87 242.575 1458.02 242.344 1466.16 242.656C1493.52 243.62 1521.8 250.449 1566.58 261.51C1640.78 279.944 1691.46 302.757 1714.18 311.785C1730.83 318.337 1748 323.48 1765.51 327.161C1826.09 340.065 1911.73 341.406 2032.2 308.475" stroke="url(#paint1_linear_237_5093)" stroke-width="2" stroke-miterlimit="10"/>
<path d="M-52.1802 273.848C76.0222 265.469 177.725 236.142 252.615 201.829C312.086 174.596 356.957 143.488 414.962 121.283C428.202 116.193 441.923 111.039 456.649 106.619C548.318 79.0307 608.628 75.6999 635.274 77.292C669.608 79.3868 671.891 78.9888 724.219 95.0141C760.858 106.263 787.608 113.867 808.012 119.209C842.388 128.154 858.916 129.956 885.017 144.724C894.963 150.412 904.311 157.086 912.92 164.646C952.847 199.084 954.816 240.394 1023.46 282.793C1083.81 320.102 1180.22 346.601 1265.58 322.783C1272.81 320.688 1279.49 318.593 1285.75 316.08C1355.03 289.434 1370.36 245.547 1444.5 238.572C1452.54 237.779 1460.63 237.52 1468.71 237.797C1496.53 238.613 1524.77 245.254 1568.47 256.21C1640.24 274.141 1690.07 296.577 1714.94 306.255C1731.45 312.747 1748.46 317.903 1765.8 321.673C1825.84 334.87 1911.08 337.656 2030.35 307.994" stroke="url(#paint2_linear_237_5093)" stroke-width="2" stroke-miterlimit="10"/>
<path d="M-53.0811 295.32C70.6175 288.554 174.751 262.683 255.38 227.113C318.015 199.461 364.938 166.929 421.812 143.635C435.387 138.062 449.233 132.239 463.981 127.232C554.917 96.3548 614.807 89.8818 642.899 86.3625C677.652 82.0263 682.197 82.7594 733.374 98.282C768.985 109.112 795.631 117.701 815.741 124.027C849.112 134.501 864.509 137.644 888.808 152.936C898.213 159.056 907.084 165.959 915.329 173.57C953.852 207.757 959.676 246.406 1028.24 284.595C1089.34 318.656 1185.01 341.008 1268.87 317.337C1276.03 315.242 1282.67 313.147 1288.9 310.696C1360.25 283.463 1375.89 241.798 1447.16 234.864C1455.15 234.052 1463.18 233.765 1471.21 234.005C1499.49 234.654 1527.77 241.148 1570.31 251.895C1639.61 269.303 1688.65 291.34 1715.63 301.835C1732.04 308.229 1748.91 313.389 1766.09 317.274C1825.59 330.764 1910.43 335.017 2028.49 308.601" stroke="url(#paint3_linear_237_5093)" stroke-width="2" stroke-miterlimit="10"/>
<path d="M-54.0027 316.834C65.2129 311.639 171.734 289.266 258.124 252.418C323.943 224.327 372.899 190.349 428.683 166.007C442.572 159.953 456.523 153.438 471.334 147.866C561.536 113.763 620.882 102.157 650.545 95.4959C685.591 87.6194 692.441 86.5929 742.549 101.613C777.218 112.087 803.633 121.597 823.408 128.845C855.773 140.828 870.018 145.352 892.537 161.147C901.383 167.687 909.781 174.811 917.675 182.472C954.816 216.367 964.494 252.376 1032.99 286.48C1094.85 317.274 1189.77 335.499 1272.14 311.995C1279.22 309.9 1285.82 307.805 1292.02 305.396C1365.46 277.598 1381.38 238.362 1449.8 231.344C1457.73 230.544 1465.71 230.229 1473.68 230.402C1502.38 230.905 1530.57 237.231 1572.14 247.768C1639 264.694 1687.22 286.354 1716.32 297.603C1732.62 303.935 1749.34 309.108 1766.37 313.084C1825.34 326.889 1909.78 332.566 2026.65 309.439" stroke="url(#paint4_linear_237_5093)" stroke-width="2" stroke-miterlimit="10"/>
<path d="M-54.8826 330.701C59.8502 327.077 168.78 308.224 260.91 270.099C329.892 241.546 380.901 206.06 435.596 180.755C449.778 174.198 463.876 167.076 478.729 160.875C568.156 123.545 627.02 106.913 658.17 96.9623C693.53 85.6922 702.81 82.7385 751.703 97.2765C778.704 105.334 805.207 114.973 831.076 126.143C862.498 139.613 875.548 145.562 896.224 161.755C905.253 168.856 912.417 176.418 920.168 183.771C955.926 217.288 969.48 250.805 1037.85 280.719C1100.53 308.224 1194.65 322.343 1275.51 299.007C1282.53 296.912 1289.09 294.817 1295.24 292.45C1370.8 264.149 1387 226.987 1452.56 220.179C1460.43 219.376 1468.35 219.04 1476.26 219.174C1505.42 219.572 1533.57 225.668 1574 235.932C1638.42 252.314 1685.84 273.639 1717.03 285.642C1733.23 291.906 1749.82 297.085 1766.7 301.144C1825.13 315.263 1909.15 322.406 2024.82 302.526" stroke="url(#paint5_linear_237_5093)" stroke-width="2" stroke-miterlimit="10"/>
<path d="M-55.8462 340.589C54.3827 338.494 165.722 323.139 263.612 283.778C335.758 254.765 388.777 217.728 442.425 191.606C456.921 184.525 471.124 176.775 486.039 169.987C574.796 129.495 633.2 107.855 665.816 94.5742C701.428 80.0152 713.117 75.0296 760.878 89.0648C787.64 96.9302 813.682 107.064 838.722 119.356C869.117 134.271 881.058 141.687 899.932 158.445C908.311 165.84 914.91 173.716 922.598 181.153C956.995 214.46 974.444 245.086 1042.65 271.041C1106.19 295.215 1199.49 305.27 1278.84 282.081C1285.78 279.986 1292.27 277.891 1298.43 275.566C1376.1 246.825 1392.63 211.8 1455.27 205.243C1463.08 204.419 1470.93 204.055 1478.79 204.154C1508.37 204.405 1536.52 210.313 1575.84 220.451C1637.81 236.351 1684.42 257.278 1717.75 270.078C1733.83 276.262 1750.27 281.446 1766.99 285.6C1824.9 300.033 1908.52 308.643 2023 291.989" stroke="url(#paint6_linear_237_5093)" stroke-width="2" stroke-miterlimit="10"/>
<path d="M-56.7469 350.623C48.9781 350.141 162.684 338.201 266.378 297.603C341.665 268.108 396.675 229.48 449.275 202.415C464.086 194.769 478.435 186.39 493.392 179.058C581.437 135.444 639.421 108.882 673.441 92.1232C709.535 74.3592 723.423 67.2788 770.033 80.8113C796.601 88.5943 822.213 99.3309 846.389 112.82C875.716 129.139 886.567 138.104 903.661 155.282C911.328 162.991 917.403 171.119 925.007 178.702C958.063 211.653 979.472 239.556 1047.47 261.51C1111.88 282.311 1204.31 288.323 1282.09 265.322C1288.96 263.228 1295.41 261.133 1301.53 258.828C1381.32 229.501 1398.04 196.675 1457.91 190.16C1465.66 189.336 1473.45 188.944 1481.24 188.987C1511.28 188.987 1539.39 194.811 1577.6 204.782C1637.14 220.137 1682.91 240.729 1718.37 254.262C1734.34 260.394 1750.66 265.598 1767.23 269.847C1824.58 284.511 1907.81 294.587 2021.07 281.243" stroke="url(#paint7_linear_237_5093)" stroke-width="2" stroke-miterlimit="10"/>
<path d="M-57.6686 360.699C43.5735 361.788 159.668 353.304 269.122 311.471C347.572 281.494 404.572 241.253 456.146 213.371C471.229 205.222 485.746 196.277 500.724 188.233C588.078 141.498 645.685 110.013 681.087 89.7771C717.621 68.8289 733.73 59.6118 779.208 72.6415C805.574 80.3347 830.758 91.6124 854.056 106.158C882.482 123.902 892.055 134.417 907.369 152.014C914.344 160.058 919.937 168.395 927.437 176.125C959.152 208.741 984.479 233.858 1052.27 251.874C1117.6 269.24 1209.13 271.293 1285.46 248.438C1292.27 246.343 1298.68 244.249 1304.75 242.007C1386.68 212.24 1403.63 181.509 1460.67 175.12C1468.37 174.293 1476.1 173.873 1483.84 173.863C1514.32 173.674 1542.49 179.372 1579.55 189.134C1636.61 203.986 1681.59 224.222 1719.17 238.509C1735.02 244.599 1751.19 249.836 1767.6 254.199C1824.43 269.24 1907.26 280.698 2019.34 270.622" stroke="url(#paint8_linear_237_5093)" stroke-width="2" stroke-miterlimit="10"/>
<path d="M-58.5904 370.733C38.1689 373.331 156.693 368.282 271.908 325.234C353.605 294.754 412.47 252.879 463.059 224.222C478.435 215.508 493.099 205.997 508.119 197.367C594.76 147.573 652.011 111.186 688.775 87.368C725.832 63.3405 744.099 51.9028 788.425 64.4298C814.608 72.0964 839.37 83.9682 861.744 99.5808C889.186 118.685 897.565 130.835 911.097 148.83C917.382 157.209 922.43 165.735 929.951 173.632C960.367 205.893 989.653 228.098 1057.19 242.3C1123.45 256.189 1214.05 254.325 1288.9 231.638C1295.62 229.543 1301.99 227.448 1308.04 225.353C1392.09 195.125 1409.29 166.489 1463.46 160.267C1471.11 159.397 1478.8 158.949 1486.5 158.927C1517.42 158.717 1545.49 164.101 1581.54 173.59C1636.15 187.94 1680.31 207.82 1720.03 222.86C1734.38 228.307 1750.28 233.691 1768.06 238.509C1824.35 253.843 1906.78 266.768 2017.64 259.939" stroke="url(#paint9_linear_237_5093)" stroke-width="2" stroke-miterlimit="10"/>
<path d="M-59.5121 380.474C32.6596 384.664 153.593 383.072 274.61 338.829C359.366 307.847 420.262 264.296 469.888 234.885C485.537 225.605 500.368 215.55 515.43 206.291C601.442 153.438 658.379 112.171 696.358 84.7914C733.939 57.5589 754.343 44.0264 797.538 56.0506C823.567 63.6975 847.937 76.1452 869.39 92.7517C895.889 113.239 902.907 127.044 914.784 145.394C920.377 154.109 924.923 162.844 932.276 170.888C961.394 202.75 994.617 222.169 1061.88 232.476C1129.15 242.782 1218.76 237.084 1292.1 214.565C1298.76 212.47 1305.09 210.375 1311.1 208.281C1397.28 177.592 1414.73 151.05 1466.12 144.975C1473.69 144.091 1481.31 143.622 1488.93 143.572C1520.35 143.174 1548.34 148.411 1583.2 157.775C1635.38 171.6 1678.7 191.145 1720.55 206.919C1734.84 212.324 1750.61 217.686 1768.19 222.609C1823.93 238.236 1905.96 252.607 2015.63 249.067" stroke="url(#paint10_linear_237_5093)" stroke-width="2" stroke-miterlimit="10"/>
<path d="M-60.4128 390.089C27.3388 395.892 150.555 397.673 277.375 352.257C365.357 320.835 428.076 275.503 476.738 245.422C492.68 235.555 507.679 224.976 522.824 215.089C608.167 159.157 664.811 113.071 703.983 82.0053C742.172 51.7981 764.733 35.9194 806.629 47.4618C834.448 55.1289 859.712 70.9866 876.994 85.7131C902.571 107.541 908.416 123.043 918.45 141.749C923.31 150.799 927.374 159.744 934.622 167.955C962.462 199.378 999.561 215.906 1066.6 222.421C1134.74 229.103 1223.5 219.634 1295.33 197.283C1301.91 195.188 1308.19 193.093 1314.18 190.998C1402.48 159.828 1420.16 135.381 1468.65 129.474C1476.17 128.576 1483.73 128.079 1491.3 127.986C1523.12 127.379 1551.1 132.49 1584.98 141.666C1634.71 154.989 1677.15 174.177 1721.14 190.705C1735.36 196.047 1751.01 201.431 1768.36 206.416C1823.58 222.358 1905.21 238.174 2013.66 237.838" stroke="url(#paint11_linear_237_5093)" stroke-width="2" stroke-miterlimit="10"/>
<path d="M-61.3346 399.579C21.9341 406.974 147.434 411.896 280.12 365.538C371.097 333.362 435.869 286.564 483.609 255.749C499.802 245.275 515.032 234.193 530.135 223.677C614.891 164.792 671.263 113.721 711.63 79.1354C750.446 45.8698 774.935 27.7706 815.867 38.7893C842.702 46.0793 867.84 62.7749 884.724 78.5908C909.38 101.759 913.821 118.937 922.221 138.021C926.41 147.405 929.951 156.518 937.115 164.897C963.677 195.984 1004.71 209.475 1071.5 212.386C1140.63 215.382 1228.42 202.206 1298.74 180.001C1305.26 177.92 1311.5 175.825 1317.45 173.716C1407.9 142.126 1425.81 119.733 1471.46 113.993C1478.91 113.071 1486.41 112.547 1493.92 112.422C1526.18 111.647 1554.16 116.612 1586.95 125.577C1634.21 138.377 1675.87 157.314 1722.02 174.512C1736.18 179.833 1751.68 185.175 1768.84 190.244C1823.51 206.5 1904.75 223.761 2012 226.736" stroke="url(#paint12_linear_237_5093)" stroke-width="2" stroke-miterlimit="10"/>
<path d="M-62.2563 408.922C16.5086 417.867 144.418 426.246 282.864 378.673C377.004 346.014 443.682 297.415 490.48 265.993C506.925 254.953 522.321 243.327 537.488 232.182C621.636 170.302 677.84 114.328 719.255 76.0979C758.742 39.7529 785.241 19.3494 824.938 29.8864C850.809 36.7783 875.842 54.3328 892.286 71.2798C916.062 95.7891 919.099 114.684 925.803 134.124C929.196 143.865 932.36 153.166 939.398 161.692C964.85 192.36 1009.8 204.929 1076.32 202.101C1146.24 199.126 1233.26 184.525 1302.09 162.488C1308.55 160.407 1314.73 158.312 1320.65 156.204C1413.29 124.32 1431.39 103.833 1474.18 98.261C1481.58 97.3314 1489.02 96.786 1496.47 96.6271C1529.17 95.7054 1557.22 100.482 1588.81 109.196C1633.53 121.597 1674.47 140.304 1722.73 158.131C1736.83 163.41 1752.21 168.751 1769.13 173.905C1823.28 190.475 1904.12 209.181 2010.16 215.424" stroke="url(#paint13_linear_237_5093)" stroke-width="2" stroke-miterlimit="10"/>
<path d="M-63.2618 418.16C11.0202 428.634 141.317 440.512 285.524 391.702C382.828 358.562 451.286 308.182 497.247 276.048C514.005 264.401 529.57 252.293 544.736 240.436C628.319 175.497 684.208 114.747 726.817 72.851C767.058 33.4685 795.61 10.8864 834.197 20.8996C859.083 27.3936 884.011 45.786 900.037 63.8642C922.933 89.6723 924.504 110.285 929.636 130.06C932.276 140.157 935.02 149.626 941.954 158.34C966.044 188.589 1014.73 196.047 1081.11 191.69C1151.96 187.102 1238.06 166.72 1305.38 144.85C1311.67 142.755 1317.95 140.66 1323.8 138.565C1418.54 106.2 1436.92 87.787 1476.86 82.4033C1484.2 81.4484 1491.57 80.875 1498.96 80.6856C1532.1 79.5963 1560.05 84.2258 1590.63 92.7727C1633.01 104.566 1673.04 122.812 1723.42 141.498C1737.48 146.735 1752.75 151.972 1769.51 157.314C1823.11 174.072 1903.58 194.329 2008.32 203.84" stroke="url(#paint14_linear_237_5093)" stroke-width="2" stroke-miterlimit="10"/>
<path d="M-64.0788 427.293C5.69934 439.38 138.364 454.672 288.373 404.648C388.924 371.027 459.1 318.761 504.138 286.061C521.065 273.785 536.943 261.217 552.11 248.773C635.253 181.069 690.786 115.124 734.358 69.625C775.249 27.0793 805.686 2.31864 843.288 11.871C867.19 17.9669 892.055 37.1973 907.641 56.3857C929.678 83.6183 929.741 105.823 933.302 125.975C935.125 136.449 937.492 146.065 944.3 154.947C967.175 184.777 1019.71 189.05 1085.85 181.237C1157.55 172.857 1242.83 148.872 1308.63 127.149C1314.91 125.054 1321.05 122.959 1326.9 121.032C1423.78 88.185 1442.36 71.7826 1479.48 66.5665C1486.81 65.6252 1494.18 65.0658 1501.56 64.8907C1532.29 63.7334 1563.01 67.6255 1592.48 76.4122C1632.4 87.7032 1671.62 105.593 1724.14 125.033C1738.13 130.207 1753.25 135.507 1769.74 140.87C1846.81 165.533 1926.06 182.795 2006.41 192.423" stroke="url(#paint15_linear_237_5093)" stroke-width="2" stroke-miterlimit="10"/>
<path d="M-65.0005 436.364C0.294747 450.022 135.347 468.771 291.117 417.51C394.748 383.407 466.788 329.382 511.072 296.011C707.628 147.761 769.844 -17.8125 852.526 2.73759C875.444 8.43548 900.246 28.5038 915.371 48.8235C947.673 92.1861 927.311 125.075 946.793 151.469C994.555 216.199 1209.4 143.907 1330.14 103.289C1447.87 63.6757 1452.23 50.9183 1504.01 48.8235C1594.4 45.1157 1641.39 81.4187 1770.05 124.237C1846.55 149.573 1925.03 168.492 2004.67 180.797" stroke="url(#paint16_linear_237_5093)" stroke-width="2" stroke-miterlimit="10"/>
<path d="M-65.0005 442.355C2.03345 457.291 132.896 474.406 281.816 425.345C384.609 391.388 453.591 336.839 501.122 301.751C690.996 161.755 750.216 10.1323 834.448 23.6648C867.358 28.9437 900.77 39.5225 922.828 55.7364C966.17 87.6194 950.061 116.13 975.199 141.624C1030.23 197.471 1230.62 134.774 1345.58 97.5069C1457.57 61.0781 1462.1 50.7717 1516.83 52.8665C1607.79 56.3439 1652.64 88.4783 1773.85 129.578C1849.47 155.207 1927.33 173.66 2006.41 184.693" stroke="url(#paint17_linear_237_5093)" stroke-width="2" stroke-miterlimit="10"/>
<path d="M-65.0005 448.598C46.7916 474.332 163.486 469.081 272.515 433.41C374.47 399.621 440.268 344.506 491.172 307.721C674.111 175.622 731.384 35.689 816.391 44.8224C859.523 49.4729 900.079 50.6459 930.286 62.9006C982.111 83.8487 972.014 107.101 1003.6 132.029C1063.96 179.603 1251.84 125.871 1361.04 91.9557C1467.1 58.711 1471.82 50.6459 1529.67 57.1399C1620.97 67.3626 1663.89 95.9777 1777.64 135.172C1852.36 161.075 1929.59 179.064 2008.07 188.841" stroke="url(#paint18_linear_237_5093)" stroke-width="2" stroke-miterlimit="10"/>
<path d="M-65.0005 459.7C43.5364 485.743 157.175 481.116 263.235 446.335C364.331 412.692 426.966 357.012 481.221 318.552C656.85 194.078 713.159 80.6227 798.313 70.84C851.584 64.7231 898.696 67.2369 937.764 74.9039C996.796 86.4673 993.361 102.953 1032.03 127.274C1096.05 167.536 1273.1 122.037 1376.48 91.2644C1476.78 61.4133 1481.45 55.1917 1542.49 66.2523C1634.08 82.8432 1675.12 108.295 1781.45 145.604C1855.28 171.814 1931.9 189.346 2009.78 197.848" stroke="url(#paint19_linear_237_5093)" stroke-width="2" stroke-miterlimit="10"/>
<path d="M-65.0005 476.605C40.2728 502.943 150.854 498.919 253.934 465C354.192 431.483 413.643 375.237 471.271 335.121C639.463 218.042 695.185 115.418 780.255 102.597C843.456 93.0869 899.262 78.5489 945.222 92.647C1008.46 112.045 1010.83 113.386 1060.44 128.259C1120.12 173.528 1294.34 123.881 1391.94 96.3129C1486.42 69.7088 1491.07 65.3097 1555.34 81.1255C1647.15 103.729 1686.32 126.436 1785.24 161.776C1858.18 188.283 1934.21 205.354 2011.48 212.575" stroke="url(#paint20_linear_237_5093)" stroke-width="2" stroke-miterlimit="10"/>
<path d="M-65.0005 493.908C37.0044 520.558 144.534 517.197 244.675 484.23C344.095 450.881 400.341 394.007 461.362 352.257C621.951 242.363 677.044 149.626 762.093 134.92C835.412 122.268 896.413 102.199 952.721 110.977C1025.33 122.289 1031.76 117.848 1088.88 129.83C1151.5 170.113 1315.56 126.122 1407.3 101.927C1495.95 78.5698 1500.6 75.7837 1568.07 96.5642C1660.24 124.886 1697.43 145.185 1788.95 178.513C1861 205.32 1936.44 221.932 2013.09 227.867" stroke="url(#paint21_linear_237_5093)" stroke-width="2" stroke-miterlimit="10"/>
<path d="M-65.0005 511.547C33.7125 538.455 138.161 535.723 235.332 503.691C333.914 470.488 386.913 412.986 451.37 369.623C604.291 266.747 658.756 183.394 744.12 167.474C827.347 151.951 894.653 139.215 960.137 129.516C1041 117.533 1052.6 122.498 1117.25 131.61C1182.9 167.034 1336.78 128.678 1422.84 107.771C1505.67 87.6613 1510.32 86.3625 1581 112.233C1673.34 146.044 1708.68 164.248 1792.74 195.502C1863.91 222.598 1938.78 238.751 2014.79 243.411" stroke="url(#paint22_linear_237_5093)" stroke-width="2" stroke-miterlimit="10"/>
<path d="M-65.0005 529.415C12.9893 551.976 118.295 559.581 226.052 523.403C323.859 490.557 373.527 432.174 441.42 387.24C586.527 291.214 640.427 216.932 726.042 200.278C819.386 182.137 893.627 164.394 967.615 148.306C1056.23 129.013 1075.5 115.543 1145.67 133.642C1218.39 152.391 1358 131.548 1438.28 113.867C1515.28 96.9832 1519.97 97.1089 1593.82 128.133C1686.62 167.243 1719.84 183.604 1796.64 212.722C1844.38 230.821 1916.4 254.492 2016.59 259.185" stroke="url(#paint23_linear_237_5093)" stroke-width="2" stroke-miterlimit="10"/>
<path d="M-65.0005 547.598C14.8118 571.395 115.844 577.407 216.751 543.409C313.72 510.73 360.099 451.593 431.47 405.151C568.659 315.849 621.783 250.428 707.984 233.376C811.468 212.889 892.789 189.993 975.073 167.39C1071.66 140.849 1095.78 120.655 1174.08 135.968C1248.72 150.631 1379.2 134.543 1453.74 120.257C1524.96 106.598 1529.82 107.855 1606.66 144.347C1699.92 188.61 1730.96 203.337 1800.43 230.234C1847.48 248.459 1918.43 272.13 2018.29 275.273" stroke="url(#paint24_linear_237_5093)" stroke-width="2" stroke-miterlimit="10"/>
<path d="M-65.0005 565.991C16.6971 591.128 113.394 595.444 207.45 563.645C303.581 531.133 346.63 471.221 421.519 423.292C550.727 340.589 603.139 283.945 689.906 266.705C803.633 244.102 892.055 215.885 982.53 186.704C1087.27 152.936 1116.07 126.478 1202.49 138.523C1279.16 149.207 1400.4 137.874 1469.18 126.876C1534.49 116.402 1539.67 118.811 1619.48 160.791C1713.33 210.124 1742.07 223.363 1804.22 247.977C1850.6 266.349 1920.44 290.104 2019.98 291.57" stroke="url(#paint25_linear_237_5093)" stroke-width="2" stroke-miterlimit="10"/>
<path d="M-65.0005 584.656C18.4358 610.987 110.964 613.732 198.15 584.132C293.443 551.767 333.118 491.017 411.569 441.685C532.712 365.475 582.987 307.386 671.849 300.285C797.831 290.209 891.385 242.049 989.988 206.27C1102.96 165.295 1140.81 112.003 1230.89 141.33C1306.14 165.903 1421.52 141.33 1484.64 133.747C1544.09 126.52 1549.57 129.935 1632.32 177.466C1726.82 231.784 1753.13 243.725 1808.01 265.972C1853.7 284.511 1922.47 308.287 2021.68 308.14" stroke="url(#paint26_linear_237_5093)" stroke-width="2" stroke-miterlimit="10"/>
<path d="M-65.0005 603.928C20.2583 631.537 108.513 632.585 188.87 605.352C283.304 573.134 319.565 511.463 401.618 460.81C514.738 390.99 564.322 343.145 653.771 334.598C789.933 321.547 890.799 268.967 997.466 226.568C1118.76 178.388 1159.54 121.597 1259.32 144.871C1338.46 163.347 1442.78 145.667 1500.07 141.351C1553.68 137.308 1559.65 141.707 1645.14 194.895C1740.39 254.136 1764.19 264.882 1811.82 284.699C1856.8 303.427 1924.5 327.182 2023.4 325.423" stroke="url(#paint27_linear_237_5093)" stroke-width="2" stroke-miterlimit="10"/>
<path d="M-65.0005 624.415C22.0598 653.303 106.041 652.737 179.569 627.557C273.165 595.486 305.949 532.809 391.668 480.92C496.534 417.427 545.637 379.888 635.714 369.895C782.099 353.661 890.254 296.891 1004.92 247.873C1134.63 192.423 1178.79 133.328 1287.72 149.416C1370.55 161.65 1463.94 150.883 1515.53 149.94C1563.25 149.06 1569.77 154.423 1657.98 213.308C1754.03 277.43 1775.29 287.108 1815.62 304.432C1859.88 323.411 1926.64 347.083 2025.1 343.71" stroke="url(#paint28_linear_237_5093)" stroke-width="2" stroke-miterlimit="10"/>
<path d="M-65.0005 645.258C23.8823 675.424 103.59 673.203 170.268 650.244C263.026 618.298 292.269 554.49 381.718 501.512C478.393 444.24 526.888 417.071 617.635 405.675C774.16 386.025 889.751 325.276 1012.38 269.638C1150.64 206.94 1198.53 146.4 1316.13 154.423C1402.44 160.309 1485.12 156.518 1530.97 159.011C1572.78 161.252 1579.95 167.537 1670.8 232.203C1767.77 301.186 1786.18 309.984 1819.41 324.647C1862.92 343.941 1928.55 367.486 2026.79 362.48" stroke="url(#paint29_linear_237_5093)" stroke-width="2" stroke-miterlimit="10"/>
<path d="M-65.0005 667.945C25.7048 699.368 101.076 695.387 160.967 674.753C252.824 642.745 278.486 577.826 371.767 523.927C460.21 472.814 508.119 456.055 599.578 443.277C766.157 420.003 889.29 355.504 1019.76 293.225C1166.39 223.279 1219.16 170.804 1344.45 161.252C1433.73 154.465 1506.19 163.975 1546.35 169.904C1582.32 175.224 1590.13 182.473 1683.56 252.9C1781.47 326.763 1797.06 334.598 1823.11 346.643C1865.81 366.397 1930.49 389.67 2028.41 383.051" stroke="url(#paint30_linear_237_5093)" stroke-width="2" stroke-miterlimit="10"/>
<path d="M-65.0005 690.402C27.5063 723.102 98.6251 717.488 151.687 699.053C242.685 667.191 264.576 600.723 361.817 546.132C442.006 501.114 489.307 494.809 581.5 480.669C758.113 453.583 888.85 385.502 1027.32 316.624C1182.52 239.389 1240.25 182.556 1372.96 167.893C1465.13 157.754 1527.5 171.098 1561.87 180.587C1592.02 188.966 1600.54 197.136 1696.46 273.408C1795.42 352.089 1808.03 359.149 1827.01 368.471C1868.74 388.958 1932.61 411.645 2030.21 403.412" stroke="url(#paint31_linear_237_5093)" stroke-width="2" stroke-miterlimit="10"/>
<path d="M-65.0005 712.879C29.266 746.836 96.2999 739.609 142.386 723.353C232.463 691.638 250.52 623.284 351.867 568.337C423.803 529.332 470.475 533.563 563.443 518.061C749.986 486.953 888.432 415.416 1034.78 340.002C1198.55 255.498 1261.41 194.224 1401.37 174.512C1496.79 161.084 1548.78 178.115 1577.33 191.271C1601.69 202.499 1610.85 211.779 1709.3 293.917C1809.33 377.437 1818.86 383.784 1830.8 390.278C1871.17 412.252 1934.62 433.641 2031.9 423.795" stroke="url(#paint32_linear_237_5093)" stroke-width="2" stroke-miterlimit="10"/>
<defs>
<linearGradient id="paint0_linear_237_5093" x1="991.831" y1="56.7607" x2="991.831" y2="345.822" gradientUnits="userSpaceOnUse">
<stop stop-color="#840864"/>
<stop offset="1" stop-color="#B90E8D" stop-opacity="0"/>
</linearGradient>
<linearGradient id="paint1_linear_237_5093" x1="990.47" y1="67.7168" x2="990.47" y2="337.954" gradientUnits="userSpaceOnUse">
<stop stop-color="#840864"/>
<stop offset="1" stop-color="#B90E8D" stop-opacity="0"/>
</linearGradient>
<linearGradient id="paint2_linear_237_5093" x1="989.087" y1="76.9631" x2="989.087" y2="331.853" gradientUnits="userSpaceOnUse">
<stop stop-color="#840864"/>
<stop offset="1" stop-color="#B90E8D" stop-opacity="0"/>
</linearGradient>
<linearGradient id="paint3_linear_237_5093" x1="987.704" y1="84.0747" x2="987.704" y2="327.949" gradientUnits="userSpaceOnUse">
<stop stop-color="#840864"/>
<stop offset="1" stop-color="#B90E8D" stop-opacity="0"/>
</linearGradient>
<linearGradient id="paint4_linear_237_5093" x1="986.322" y1="89.8605" x2="986.322" y2="325.121" gradientUnits="userSpaceOnUse">
<stop stop-color="#840864"/>
<stop offset="1" stop-color="#B90E8D" stop-opacity="0"/>
</linearGradient>
<linearGradient id="paint5_linear_237_5093" x1="984.971" y1="87.4162" x2="984.971" y2="330.701" gradientUnits="userSpaceOnUse">
<stop stop-color="#840864"/>
<stop offset="1" stop-color="#B90E8D" stop-opacity="0"/>
</linearGradient>
<linearGradient id="paint6_linear_237_5093" x1="983.578" y1="80.7425" x2="983.578" y2="340.589" gradientUnits="userSpaceOnUse">
<stop stop-color="#840864"/>
<stop offset="1" stop-color="#B90E8D" stop-opacity="0"/>
</linearGradient>
<linearGradient id="paint7_linear_237_5093" x1="982.164" y1="73.7472" x2="982.164" y2="350.623" gradientUnits="userSpaceOnUse">
<stop stop-color="#840864"/>
<stop offset="1" stop-color="#B90E8D" stop-opacity="0"/>
</linearGradient>
<linearGradient id="paint8_linear_237_5093" x1="980.834" y1="66.6219" x2="980.834" y2="360.788" gradientUnits="userSpaceOnUse">
<stop stop-color="#840864"/>
<stop offset="1" stop-color="#B90E8D" stop-opacity="0"/>
</linearGradient>
<linearGradient id="paint9_linear_237_5093" x1="979.524" y1="59.2939" x2="979.524" y2="371.293" gradientUnits="userSpaceOnUse">
<stop stop-color="#840864"/>
<stop offset="1" stop-color="#B90E8D" stop-opacity="0"/>
</linearGradient>
<linearGradient id="paint10_linear_237_5093" x1="978.058" y1="51.639" x2="978.058" y2="382.008" gradientUnits="userSpaceOnUse">
<stop stop-color="#840864"/>
<stop offset="1" stop-color="#B90E8D" stop-opacity="0"/>
</linearGradient>
<linearGradient id="paint11_linear_237_5093" x1="976.623" y1="43.6856" x2="976.623" y2="393.071" gradientUnits="userSpaceOnUse">
<stop stop-color="#840864"/>
<stop offset="1" stop-color="#B90E8D" stop-opacity="0"/>
</linearGradient>
<linearGradient id="paint12_linear_237_5093" x1="975.335" y1="35.5605" x2="975.335" y2="404.346" gradientUnits="userSpaceOnUse">
<stop stop-color="#840864"/>
<stop offset="1" stop-color="#B90E8D" stop-opacity="0"/>
</linearGradient>
<linearGradient id="paint13_linear_237_5093" x1="973.952" y1="27.116" x2="973.952" y2="415.844" gradientUnits="userSpaceOnUse">
<stop stop-color="#840864"/>
<stop offset="1" stop-color="#B90E8D" stop-opacity="0"/>
</linearGradient>
<linearGradient id="paint14_linear_237_5093" x1="972.528" y1="18.5319" x2="972.528" y2="427.514" gradientUnits="userSpaceOnUse">
<stop stop-color="#840864"/>
<stop offset="1" stop-color="#B90E8D" stop-opacity="0"/>
</linearGradient>
<linearGradient id="paint15_linear_237_5093" x1="971.166" y1="9.82956" x2="971.166" y2="439.346" gradientUnits="userSpaceOnUse">
<stop stop-color="#840864"/>
<stop offset="1" stop-color="#B90E8D" stop-opacity="0"/>
</linearGradient>
<linearGradient id="paint16_linear_237_5093" x1="969.836" y1="1" x2="969.836" y2="451.281" gradientUnits="userSpaceOnUse">
<stop stop-color="#840864"/>
<stop offset="1" stop-color="#B90E8D" stop-opacity="0"/>
</linearGradient>
<linearGradient id="paint17_linear_237_5093" x1="970.705" y1="22.8206" x2="970.705" y2="457.849" gradientUnits="userSpaceOnUse">
<stop stop-color="#840864"/>
<stop offset="1" stop-color="#B90E8D" stop-opacity="0"/>
</linearGradient>
<linearGradient id="paint18_linear_237_5093" x1="971.533" y1="44.398" x2="971.533" y2="464.668" gradientUnits="userSpaceOnUse">
<stop stop-color="#840864"/>
<stop offset="1" stop-color="#B90E8D" stop-opacity="0"/>
</linearGradient>
<linearGradient id="paint19_linear_237_5093" x1="972.391" y1="61.1348" x2="972.391" y2="476.325" gradientUnits="userSpaceOnUse">
<stop stop-color="#840864"/>
<stop offset="1" stop-color="#B90E8D" stop-opacity="0"/>
</linearGradient>
<linearGradient id="paint20_linear_237_5093" x1="973.24" y1="71.9608" x2="973.24" y2="493.779" gradientUnits="userSpaceOnUse">
<stop stop-color="#840864"/>
<stop offset="1" stop-color="#B90E8D" stop-opacity="0"/>
</linearGradient>
<linearGradient id="paint21_linear_237_5093" x1="974.046" y1="82.5532" x2="974.046" y2="511.693" gradientUnits="userSpaceOnUse">
<stop stop-color="#840864"/>
<stop offset="1" stop-color="#B90E8D" stop-opacity="0"/>
</linearGradient>
<linearGradient id="paint22_linear_237_5093" x1="974.895" y1="92.7391" x2="974.895" y2="529.899" gradientUnits="userSpaceOnUse">
<stop stop-color="#840864"/>
<stop offset="1" stop-color="#B90E8D" stop-opacity="0"/>
</linearGradient>
<linearGradient id="paint23_linear_237_5093" x1="975.796" y1="102.623" x2="975.796" y2="548.44" gradientUnits="userSpaceOnUse">
<stop stop-color="#840864"/>
<stop offset="1" stop-color="#B90E8D" stop-opacity="0"/>
</linearGradient>
<linearGradient id="paint24_linear_237_5093" x1="976.644" y1="112.25" x2="976.644" y2="567.182" gradientUnits="userSpaceOnUse">
<stop stop-color="#840864"/>
<stop offset="1" stop-color="#B90E8D" stop-opacity="0"/>
</linearGradient>
<linearGradient id="paint25_linear_237_5093" x1="977.492" y1="121.644" x2="977.492" y2="586.175" gradientUnits="userSpaceOnUse">
<stop stop-color="#840864"/>
<stop offset="1" stop-color="#B90E8D" stop-opacity="0"/>
</linearGradient>
<linearGradient id="paint26_linear_237_5093" x1="978.341" y1="130.844" x2="978.341" y2="605.376" gradientUnits="userSpaceOnUse">
<stop stop-color="#840864"/>
<stop offset="1" stop-color="#B90E8D" stop-opacity="0"/>
</linearGradient>
<linearGradient id="paint27_linear_237_5093" x1="979.2" y1="139.485" x2="979.2" y2="625.216" gradientUnits="userSpaceOnUse">
<stop stop-color="#840864"/>
<stop offset="1" stop-color="#B90E8D" stop-opacity="0"/>
</linearGradient>
<linearGradient id="paint28_linear_237_5093" x1="980.048" y1="146.729" x2="980.048" y2="646.273" gradientUnits="userSpaceOnUse">
<stop stop-color="#840864"/>
<stop offset="1" stop-color="#B90E8D" stop-opacity="0"/>
</linearGradient>
<linearGradient id="paint29_linear_237_5093" x1="980.896" y1="153.705" x2="980.896" y2="667.687" gradientUnits="userSpaceOnUse">
<stop stop-color="#840864"/>
<stop offset="1" stop-color="#B90E8D" stop-opacity="0"/>
</linearGradient>
<linearGradient id="paint30_linear_237_5093" x1="981.703" y1="158.906" x2="981.703" y2="690.885" gradientUnits="userSpaceOnUse">
<stop stop-color="#840864"/>
<stop offset="1" stop-color="#B90E8D" stop-opacity="0"/>
</linearGradient>
<linearGradient id="paint31_linear_237_5093" x1="982.604" y1="164.264" x2="982.604" y2="713.92" gradientUnits="userSpaceOnUse">
<stop stop-color="#840864"/>
<stop offset="1" stop-color="#B90E8D" stop-opacity="0"/>
</linearGradient>
<linearGradient id="paint32_linear_237_5093" x1="983.452" y1="169.612" x2="983.452" y2="736.966" gradientUnits="userSpaceOnUse">
<stop stop-color="#840864"/>
<stop offset="1" stop-color="#B90E8D" stop-opacity="0"/>
</linearGradient>
</defs>
</svg>
