<svg width="1795" height="3370" viewBox="0 0 1795 3370" fill="none" xmlns="http://www.w3.org/2000/svg">
<path d="M1482.51 496.632C1366.39 681.939 1320.55 839.788 1300.28 950.553C1279.78 1062.56 1280.32 1154.71 1223.83 1280C1161.72 1418.33 1091.82 1486.74 1062.18 1512.3C1021.06 1547.73 1016.7 1540.34 943.071 1593.52C801.625 1695.68 801.123 1734.85 728.826 1773.93C608.966 1838.74 561.847 1757.3 407.396 1803.3C295.527 1836.59 158.164 1927.58 104.66 2062.92C54.2812 2190.38 117.967 2256.71 44.8465 2375.73C14.8119 2424.62 -23.0871 2455.59 -98.8651 2517.52C-195.855 2596.98 -274.446 2640.24 -304.469 2658.66C-393.452 2713.18 -506.739 2823.92 -599.178 3074.01" stroke="url(#paint0_linear_237_5030)" stroke-width="5" stroke-miterlimit="10"/>
<path d="M1459.9 477.857C1346.06 655.969 1293.55 813.561 1269.25 932.746C1249.98 1029.91 1246.72 1112.6 1217.28 1207.85C1210.83 1228.66 1203.53 1250.22 1194.45 1272.53C1137.25 1413.09 1074.41 1486.33 1047.18 1516.16C1010.7 1556.18 1005.96 1552.63 933.977 1604.88C883.275 1641.73 849.248 1669.54 823.892 1691.82C780.804 1729.72 763.3 1751.74 718.637 1773.65C702.028 1781.87 684.526 1788.15 666.48 1792.36C583.038 1811.86 528.854 1767.75 404.316 1810.51C295.908 1847.73 164.463 1941.87 112.183 2075.13C108.046 2085.7 104.446 2096.46 101.397 2107.39C70.666 2217.68 114.792 2280.69 50.6519 2385.4C43.9075 2396.45 36.4335 2407.03 28.2794 2417.08C0.989294 2450.93 -34.6341 2480.37 -91.3627 2526.76C-185.485 2603.5 -262.759 2646.17 -295.889 2666.46C-320.077 2681.38 -342.97 2698.3 -364.329 2717.04C-438.449 2781.75 -521.742 2889.32 -594.666 3073.81" stroke="url(#paint1_linear_237_5030)" stroke-width="5" stroke-miterlimit="10"/>
<path d="M1435.22 457.526C1323.73 628.456 1264.1 785.664 1236.37 913.541C1214.32 1015.08 1211.11 1101.75 1184.07 1196.63C1177.92 1218.3 1171.4 1240.65 1162.99 1263.58C1110.72 1406.38 1057.49 1486.21 1030.08 1518.56C994.706 1560.2 993.036 1563.48 922.812 1614.73C873.608 1650.58 838.456 1677.33 812.228 1698.17C768.107 1733.35 750.07 1752.64 706.432 1771.74C689.727 1778.96 672.338 1784.49 654.527 1788.23C572.714 1806.16 518.333 1769.31 399.04 1816.16C294.121 1857.33 168.593 1954.61 117.537 2085.8C113.314 2096.98 109.609 2107.47 106.837 2117.83C74.703 2231.26 115.874 2292.57 54.1084 2393.44C47.4497 2404.42 40.0714 2414.95 32.0219 2424.96C4.47917 2459.54 -30.8646 2489.1 -86.4224 2534.2C-177.59 2608.34 -253.586 2650.3 -289.578 2672.69C-313.563 2687.49 -336.321 2704.2 -357.632 2722.65C-431.606 2786.38 -516.357 2892.06 -592.297 3071.93" stroke="url(#paint2_linear_237_5030)" stroke-width="5" stroke-miterlimit="10"/>
<path d="M1408.79 435.924C1299.53 599.593 1233.2 756.596 1201.59 892.966C1177.07 998.921 1173.71 1089.56 1149.13 1184.04C1143.28 1206.6 1137.49 1229.75 1129.8 1253.26C1082.41 1398.26 1033.58 1480.55 1011.29 1519.61C983.687 1567.91 978.424 1572.99 909.937 1623.25C862.243 1658.19 825.94 1683.88 798.739 1703.41C753.633 1735.84 734.97 1752.42 692.382 1768.74C675.643 1774.86 658.417 1779.56 640.889 1782.79C560.733 1799.18 506.061 1769.76 392.2 1820.52C290.689 1865.73 171.131 1966.04 121.326 2095.17C117.162 2106.27 113.498 2116.71 110.686 2126.95C77.3215 2243.58 115.371 2303.17 56.2862 2400.35C49.7066 2411.28 42.4176 2421.76 34.4659 2431.74C6.69708 2467.06 -28.5002 2496.82 -82.694 2540.66C-170.841 2612.15 -245.573 2653.48 -284.618 2677.78C-308.384 2692.55 -331.014 2709.07 -352.321 2727.21C-426.148 2789.97 -512.384 2893.75 -591.293 3068.98" stroke="url(#paint3_linear_237_5030)" stroke-width="5" stroke-miterlimit="10"/>
<path d="M1382.32 414.255C1275.34 570.729 1202.29 727.435 1166.82 872.344C1139.81 982.765 1136.36 1077.36 1114.15 1171.46C1108.61 1194.88 1103.6 1218.82 1096.57 1242.95C1053.98 1390.09 1012.19 1476.58 992.392 1520.62C969.014 1572.67 963.792 1582.36 896.962 1631.74C850.618 1665.82 813.363 1690.33 785.31 1708.56C739.245 1738.28 719.923 1752.08 678.392 1765.65C661.653 1770.66 644.596 1774.55 627.338 1777.29C548.872 1792.2 493.882 1770.19 385.273 1824.77C287.197 1874.05 173.603 1977.33 125.001 2104.41C120.918 2115.41 117.294 2125.79 114.448 2135.97C79.8069 2255.8 114.508 2313.42 58.2444 2407.06C51.7036 2417.91 44.5054 2428.34 36.6902 2438.31C8.7086 2474.31 -26.1959 2504.12 -79.1854 2546.91C-164.405 2615.77 -237.879 2656.42 -279.899 2682.69C-303.473 2697.37 -325.981 2713.7 -347.255 2731.55C-420.983 2793.35 -508.65 2895.26 -590.602 3065.84" stroke="url(#paint4_linear_237_5030)" stroke-width="5" stroke-miterlimit="10"/>
<path d="M1365.53 399.925C1260.83 549.205 1181.01 705.619 1141.69 859.041C1112.26 973.922 1108.76 1072.56 1088.82 1166.19C1083.64 1190.46 1079.26 1215.17 1072.99 1239.95C1035.24 1389.18 1000.29 1479.85 983.264 1528.92C963.899 1584.6 958.811 1599.21 893.751 1647.5C857.785 1674.14 820.284 1698.65 781.44 1720.88C734.383 1747.99 714.387 1758.91 674.107 1769.76C656.479 1774.47 640.042 1776.37 623.312 1779.22C546.642 1792.73 491.129 1778.03 387.964 1836.43C293.291 1889.89 185.673 1996.07 138.296 2121.07C134.272 2131.99 130.688 2142.32 127.829 2152.4C91.8107 2275.4 123.617 2331.39 69.801 2421.21C63.3235 2431.98 56.2128 2442.36 48.5064 2452.28C20.2188 2488.97 -14.353 2518.94 -65.9186 2560.55C-148.111 2626.82 -220.401 2666.78 -265.375 2694.99C-288.765 2709.6 -311.155 2725.76 -332.398 2743.35C-406.007 2804.16 -495.138 2904.14 -580.079 3070.11" stroke="url(#paint5_linear_237_5030)" stroke-width="5" stroke-miterlimit="10"/>
<path d="M1353.88 389.279C1251.53 531.378 1164.96 687.521 1121.73 849.443C1089.87 968.783 1086.43 1071.46 1068.52 1164.53C1063.71 1189.7 1060.03 1215.14 1054.44 1240.56C1021.35 1391.95 993.209 1486.8 979.014 1540.91C963.59 1600.05 958.79 1619.65 895.447 1666.99C859.953 1693.51 822.261 1716.95 782.782 1737.07C734.866 1761.49 714.064 1769.6 674.782 1777.63C657.4 1781.23 641.102 1782.11 624.325 1784.8C549.219 1796.78 493.668 1789.79 395.695 1851.75C304.437 1909.47 202.763 2018.48 156.636 2141.43C152.692 2152.24 149.168 2162.49 146.255 2172.53C108.781 2298.64 137.552 2353.02 86.2106 2438.88C79.8142 2449.59 72.7926 2459.93 65.1821 2469.82C36.6818 2507.17 2.34966 2537.33 -47.9984 2577.64C-127.243 2641.25 -198.249 2680.56 -246.27 2710.72C-269.452 2725.27 -291.711 2741.24 -312.921 2758.53C-386.43 2818.37 -477.046 2916.46 -564.95 3077.83" stroke="url(#paint6_linear_237_5030)" stroke-width="5" stroke-miterlimit="10"/>
<path d="M1341.99 378.575C1241.87 513.412 1148.71 669.311 1101.52 839.785C1067.28 963.578 1063.97 1070.3 1048.25 1162.94C1043.86 1189.05 1040.84 1215.27 1035.91 1241.27C1007.46 1394.73 985.977 1493.73 974.865 1552.94C963.055 1615.74 958.823 1640.14 897.216 1686.49C862.011 1712.84 823.963 1735.16 783.785 1753.04C735.102 1774.77 713.368 1780.02 675.25 1785.38C658.147 1787.78 642.028 1787.76 625.145 1790.2C551.769 1800.82 495.907 1801.44 403.22 1866.95C315.409 1929.01 219.713 2040.75 174.843 2161.53C170.959 2172.26 167.474 2182.45 164.575 2192.42C125.831 2321.78 151.626 2374.3 102.866 2456.6C96.5302 2467.24 89.6053 2477.52 82.1239 2487.38C53.504 2525.56 19.3183 2555.75 -29.759 2594.81C-105.996 2655.85 -175.778 2694.41 -226.767 2726.59C-249.776 2741.05 -271.93 2756.82 -293.118 2773.83C-366.402 2832.76 -458.502 2928.95 -549.455 3085.62" stroke="url(#paint7_linear_237_5030)" stroke-width="5" stroke-miterlimit="10"/>
<path d="M1330.06 367.804C1232.22 495.446 1132.39 651.087 1081.28 830.061C1044.64 958.334 1041.48 1069.12 1027.78 1161.24C1023.77 1188.17 1021.31 1215.14 1017.26 1241.85C993.438 1397.4 978.571 1500.62 970.562 1564.89C962.381 1631.29 958.748 1660.54 898.858 1705.93C863.96 1732.11 825.632 1753.38 784.947 1769.13C735.312 1788.36 712.825 1790.51 675.871 1793.21C659 1794.41 643.075 1793.57 626.105 1795.74C554.433 1804.98 498.379 1813.24 410.897 1882.23C326.575 1948.73 236.769 2063.1 193.09 2181.9C189.266 2192.55 185.821 2202.69 182.882 2212.55C142.661 2345.04 165.574 2395.86 119.349 2474.45C113.068 2485.02 106.233 2495.25 98.8728 2505.09C70.0733 2544.01 35.9875 2574.4 -11.7258 2612.19C-84.9692 2670.57 -153.539 2708.46 -207.503 2742.61C-230.347 2756.96 -252.407 2772.52 -273.588 2789.22C-346.852 2847.13 -440.33 2941.49 -534.3 3093.53" stroke="url(#paint8_linear_237_5030)" stroke-width="5" stroke-miterlimit="10"/>
<path d="M1318.18 357.072C1222.69 477.58 1116.19 633.036 1061.13 820.49C1022.04 953.368 1019.18 1068.08 1007.4 1159.68C1003.83 1187.53 1001.95 1215.23 998.608 1242.54C979.35 1400.11 971.052 1507.54 966.299 1576.96C961.532 1646.95 958.666 1681.07 900.513 1725.47C865.823 1751.45 827.142 1771.61 785.982 1785.17C735.555 1801.85 712.129 1800.92 676.364 1800.98C659.727 1800.98 644.08 1799.28 626.878 1801.31C556.895 1809.23 500.771 1825.3 418.374 1897.61C337.594 1968.59 253.645 2085.52 211.169 2202.27C207.425 2212.81 204.021 2222.9 200.915 2232.6C159.264 2368.22 179.275 2417.36 135.571 2492.14C129.389 2502.69 122.629 2512.9 115.321 2522.7C86.1294 2562.2 52.5428 2592.75 6.13358 2629.53C-64.1356 2685.27 -131.475 2722.46 -188.433 2758.61C-209.026 2771.66 -231.017 2786.74 -254.086 2804.76C-327.203 2861.69 -422.166 2954.14 -519.105 3101.55" stroke="url(#paint9_linear_237_5030)" stroke-width="5" stroke-miterlimit="10"/>
<path d="M1306.68 346.62C1213.54 459.78 1100.34 615.005 1041.28 810.971C999.908 948.216 997.244 1067.11 987.346 1158.21C984.232 1186.94 982.882 1215.37 980.3 1243.33C965.528 1403.01 963.734 1514.7 962.35 1589.05C961.158 1662.76 958.918 1701.59 902.482 1745.04C867.963 1770.83 828.924 1789.95 787.378 1801.39C736.091 1815.56 711.859 1811.32 677.219 1808.94C660.814 1807.74 645.38 1805.2 628.151 1806.88C559.912 1813.53 503.576 1837.26 426.391 1912.93C349.206 1988.61 271.067 2107.94 229.816 2222.61C226.132 2233.07 222.767 2243.11 219.702 2252.75C176.6 2391.52 193.709 2438.99 152.474 2510.09C146.383 2520.56 139.723 2530.68 132.523 2540.42C103.092 2580.74 69.7715 2611.32 24.6596 2646.7C-42.6289 2699.86 -108.744 2736.3 -168.669 2774.47C-189.15 2787.47 -210.995 2802.41 -233.996 2820.06C-306.967 2876.02 -403.388 2966.6 -503.37 3109.35" stroke="url(#paint10_linear_237_5030)" stroke-width="5" stroke-miterlimit="10"/>
<path d="M1295.32 336.314C1204.34 442.319 1084.68 597.233 1021.58 801.693C977.693 943.456 975.556 1066.36 967.427 1156.87C964.78 1186.54 963.935 1215.68 962.073 1244.35C951.853 1406.11 956.462 1522.01 958.626 1601.4C960.636 1678.72 959.324 1722.52 904.737 1764.77C868.487 1792.83 824.263 1809.83 789.079 1817.77C736.967 1829.48 711.696 1822.14 678.359 1817.07C662.227 1814.62 646.986 1811.27 629.643 1812.66C563.181 1818.1 506.828 1849.51 434.681 1928.5C361.264 2008.75 288.736 2130.58 248.709 2243.18C245.105 2253.53 241.78 2263.52 238.734 2273.13C194.229 2415.05 208.457 2460.81 169.762 2528.08C163.742 2538.49 157.171 2548.57 150.078 2558.28C120.533 2599.3 87.3726 2630 43.4384 2664.32C-20.8759 2714.83 -85.6999 2750.49 -148.619 2790.66C-168.96 2803.65 -190.712 2818.41 -213.574 2835.7C-286.446 2890.7 -384.325 2979.39 -487.222 3117.55" stroke="url(#paint11_linear_237_5030)" stroke-width="5" stroke-miterlimit="10"/>
<path d="M1284.13 326.101C1195.4 424.892 1069.58 579.714 1002.08 792.527C956.302 938.817 954.073 1065.73 947.754 1155.77C945.64 1186.33 945.215 1216.24 944.191 1245.46C938.284 1409.29 949.49 1529.59 954.989 1613.85C960.288 1694.88 959.961 1743.25 906.958 1784.78C872.126 1811.94 826.956 1827.98 790.768 1834.38C737.829 1843.64 711.765 1832.92 679.506 1825.41C663.586 1821.8 648.631 1817.62 631.156 1818.74C566.337 1822.88 510.092 1862.19 442.764 1944.3C373.095 2029.3 306.198 2153.45 267.422 2263.98C263.853 2274.25 260.574 2284.18 257.587 2293.75C211.559 2438.81 222.957 2482.91 186.764 2546.4C180.835 2556.75 174.36 2566.77 167.365 2576.44C137.615 2618.18 104.641 2649.02 62.0105 2682.15C0.716891 2730.02 -63.0492 2764.93 -128.876 2807.2C-149.131 2820.13 -170.689 2834.75 -193.479 2851.72C-266.231 2905.73 -365.567 2992.54 -471.534 3126.02" stroke="url(#paint12_linear_237_5030)" stroke-width="5" stroke-miterlimit="10"/>
<path d="M1273.14 316.028C1186.73 407.618 1054.21 562.209 982.775 783.501C934.592 934.27 932.837 1065.32 928.188 1154.74C926.553 1186.16 926.661 1216.81 926.376 1246.7C924.855 1412.61 942.451 1537.37 951.585 1626.44C960.159 1711.25 960.845 1764.37 909.632 1804.79C876.224 1831.11 830.062 1846.2 792.855 1850.95C739.051 1857.82 712.141 1843.68 681.046 1833.68C665.432 1828.71 650.596 1823.87 633.054 1824.69C569.825 1827.83 511.02 1872.99 451.247 1960.22C388.408 2051.93 324.059 2176.44 286.487 2284.93C282.985 2295.11 279.753 2304.97 276.792 2314.51C229.061 2462.62 237.857 2505.14 204.165 2564.85C198.299 2575.13 191.904 2585.11 185.006 2594.73C155.023 2637.17 122.228 2668.27 81.0552 2700.12C22.6824 2745.15 -40.0923 2779.36 -108.734 2823.72C-128.875 2836.61 -150.314 2851.06 -172.99 2867.66C-245.643 2920.7 -346.437 3005.63 -455.4 3134.46" stroke="url(#paint13_linear_237_5030)" stroke-width="5" stroke-miterlimit="10"/>
<path d="M1262.35 305.949C1178.27 390.383 1039.03 544.677 963.679 774.469C913.095 929.718 911.906 1064.73 908.962 1153.76C907.799 1186.16 908.36 1217.48 908.98 1248.05C911.886 1416.15 935.851 1545.07 948.507 1639.14C960.223 1727.81 961.723 1785.62 912.233 1825.12C880.269 1850.56 833.141 1864.73 794.896 1867.87C740.279 1872.38 712.583 1854.74 682.559 1842.42C667.21 1836.16 652.561 1830.63 634.879 1831.14C573.48 1832.94 517.619 1887.71 459.91 1976.23C398.242 2070.65 342.121 2199.5 305.772 2305.91C302.447 2315.9 299.122 2325.88 296.217 2335.3C247.082 2486.57 252.983 2527.46 221.765 2583.36C215.994 2593.59 209.694 2603.51 202.893 2613.09C172.704 2656.25 140.195 2687.36 100.193 2718.09C44.8279 2760.71 -16.5027 2794.21 -88.2518 2840.44C-108.3 2853.32 -129.506 2867.74 -152.262 2883.95C-224.635 2936.12 -327.041 3019.09 -438.92 3143.15" stroke="url(#paint14_linear_237_5030)" stroke-width="5" stroke-miterlimit="10"/>
<path d="M1251.52 296.209C1169.68 373.382 1023.85 527.431 944.51 765.756C891.445 925.591 891.016 1064.58 889.668 1152.98C889.144 1186.19 889.991 1218.35 891.357 1249.48C898.197 1419.66 929.104 1553.07 945.422 1651.8C960.54 1744.31 963.012 1806.59 915.046 1845.28C884.526 1869.85 836.393 1883.13 797.156 1884.66C741.547 1886.72 713.264 1865.65 684.257 1850.98C669.208 1843.31 654.732 1837.16 636.956 1837.35C577.248 1838.01 521.761 1900.71 468.685 1992.21C411.018 2091.33 360.255 2222.58 325.177 2326.9C321.852 2336.89 318.667 2346.68 315.548 2355.95C264.99 2510.39 268.135 2549.63 239.399 2601.78C233.616 2611.99 227.306 2621.89 220.493 2631.44C192.685 2671.6 158.477 2706.93 119.231 2736.02C66.8397 2776.01 6.74002 2808.81 -68.0034 2857.03C-87.9119 2869.89 -109.058 2884.07 -131.581 2899.91C-236.36 2974.37 -333.804 3058.65 -422.593 3151.61" stroke="url(#paint15_linear_237_5030)" stroke-width="5" stroke-miterlimit="10"/>
<path d="M1240.87 286.396C1161.3 356.374 1008.8 510.166 925.548 756.99C870.162 921.197 870.193 1064.23 870.415 1152.31C871.576 1543.38 1022.75 1780.21 917.854 1865.72C888.778 1889.42 839.64 1901.83 799.404 1901.69C713.514 1901.43 691.111 1844.22 639.002 1843.83C511.225 1842.87 398.419 2184.81 335.007 2376.98C273.191 2564.36 285.254 2582.05 238.58 2649.86C157.174 2768.28 66.266 2793.42 -110.739 2916.16C-215.826 2989.25 -314.641 3070.97 -406.159 3160.47" stroke="url(#paint16_linear_237_5030)" stroke-width="5" stroke-miterlimit="10"/>
<path d="M1233.26 280.688C1150.41 351.659 1003.98 501.682 924.451 737.704C869.677 900.707 873.287 1040.35 872.6 1134.2C869.637 1508.91 1005.93 1728.64 908.479 1822.81C870.415 1859.6 825.136 1891.99 783.512 1904.58C701.695 1929.29 680.805 1881.66 624.452 1889.32C501.039 1906.05 389.809 2220.49 327.646 2402.11C267.251 2579.16 276.04 2594.73 221.227 2662.31C130.149 2774.6 46.5753 2800.99 -121.141 2915.89C-225.763 2987.58 -323.403 3068.97 -412.768 3158.97" stroke="url(#paint17_linear_237_5030)" stroke-width="5" stroke-miterlimit="10"/>
<path d="M1225.32 274.74C1086.11 392.311 981.6 545.635 923.062 718.198C868.873 879.976 876.236 1016.12 874.492 1115.86C868.097 1474.24 991.39 1680.35 898.791 1779.7C851.786 1830.09 811.656 1880.52 767.301 1907.23C691.299 1953.15 671.365 1918.16 609.584 1934.56C491.618 1965.94 380.908 2255.94 319.973 2427.05C261.179 2593.53 266.939 2607.2 203.561 2674.56C103.59 2780.85 26.3259 2808.14 -131.863 2915.38C-235.976 2985.67 -332.422 3066.69 -419.616 3157.12" stroke="url(#paint18_linear_237_5030)" stroke-width="5" stroke-miterlimit="10"/>
<path d="M1211.21 264.162C1074.7 377.302 972.317 526.147 915.476 694.089C861.918 854.636 873.014 987.294 870.207 1092.9C861.086 1434.72 951.642 1614.38 882.946 1731.93C839.967 1805.47 791.886 1862.95 744.92 1905.3C673.98 1969.32 656.299 1949.24 588.544 1975.22C476.378 2018.23 365.523 2286.62 306.142 2447.33C248.524 2603.26 251.981 2615.12 179.765 2682.17C71.4206 2782.77 -0.027295 2810.68 -148.755 2910.28C-252.407 2979.15 -347.696 3059.84 -432.702 3150.72" stroke="url(#paint19_linear_237_5030)" stroke-width="5" stroke-miterlimit="10"/>
<path d="M1189.73 248.056C1055.95 356.767 955.711 501.151 900.614 664.484C847.695 823.846 862.543 952.997 858.626 1064.46C847.192 1389.78 924.541 1558.38 859.786 1678.72C811.66 1768.11 776.97 1852.89 715.263 1897.88C630.354 1959.78 626.395 1961.51 560.23 2010.39C445.831 2043.12 342.942 2311.86 284.996 2462.17C228.799 2607.6 229.96 2617.7 148.626 2684.32C32.421 2779.48 -33.7626 2807.64 -172.922 2899.69C-276.106 2967.15 -370.24 3047.52 -453.036 3138.85" stroke="url(#paint20_linear_237_5030)" stroke-width="5" stroke-miterlimit="10"/>
<path d="M1167.73 231.571C1036.68 335.831 938.501 475.704 884.993 634.395C832.659 792.532 851.36 918.208 846.286 1035.54C832.964 1344.35 898.345 1502.73 836.006 1624.84C782.235 1730.09 749.624 1826.74 684.82 1889.95C601.268 1971.45 600.785 1983.86 531.129 2045.05C420.274 2086.25 319.875 2336.7 263.231 2476.34C208.456 2611.27 207.566 2619.84 116.869 2685.8C-6.94469 2775.97 -68.1704 2803.89 -197.728 2888.46C-300.448 2954.5 -393.44 3034.56 -474.01 3126.33" stroke="url(#paint21_linear_237_5030)" stroke-width="5" stroke-miterlimit="10"/>
<path d="M1145.31 214.766C1017.07 314.595 921.026 449.954 869.16 603.978C817.438 760.911 840.031 883.058 833.734 1006.3C818.797 1298.68 872.849 1447.32 811.755 1570.98C752.191 1691.56 704.253 1789.24 654.192 1881.71C592.383 1995.9 575.016 2005.92 501.843 2079.4C394.271 2129.1 296.41 2361.23 240.994 2490.53C187.64 2614.96 184.86 2622.11 84.6392 2687.3C-46.3097 2772.45 -103.117 2800.02 -222.934 2877.09C-325.18 2941.74 -417.04 3021.51 -495.382 3113.68" stroke="url(#paint22_linear_237_5030)" stroke-width="5" stroke-miterlimit="10"/>
<path d="M1122.6 197.742C1019.62 275.373 909.629 401.974 852.946 573.403C801.51 729.011 828.395 847.763 820.822 976.866C804.623 1252.79 847.684 1392.07 787.283 1516.75C721.407 1652.68 673.227 1763.94 623.184 1873.31C563.283 2004.32 562.041 2041.65 472.177 2113.6C379.073 2188.15 272.544 2385.47 218.537 2504.34C166.631 2618.3 162 2624.15 52.2157 2688.44C-85.9085 2769.13 -138.357 2795.77 -248.532 2865.64C-317.021 2909.08 -415.724 2978.06 -517.148 3100.94" stroke="url(#paint23_linear_237_5030)" stroke-width="5" stroke-miterlimit="10"/>
<path d="M1099.49 180.418C993.205 259.188 889.306 381.875 836.38 542.521C785.53 696.905 816.506 812.195 807.538 947.155C790.336 1206.61 822.873 1336.46 762.419 1462.27C689.865 1613.32 641.489 1738.49 591.823 1864.61C533.53 2012.67 536.225 2062.55 442.159 2147.49C352.41 2228.38 248.539 2409.56 195.687 2517.91C145.189 2621.44 138.961 2626.42 19.3734 2689.32C-125.74 2765.68 -174.035 2791.11 -274.403 2853.78C-342.393 2896.21 -440.078 2963.84 -539.212 3087.77" stroke="url(#paint24_linear_237_5030)" stroke-width="5" stroke-miterlimit="10"/>
<path d="M1076.11 162.895C966.328 242.784 868.716 361.576 819.521 511.42C769.256 664.579 804.391 776.374 793.96 917.224C775.975 1160.24 798.035 1280.83 737.281 1407.54C657.657 1573.62 609.279 1712.89 560.169 1855.69C503.298 2020.99 509.484 2082.8 411.847 2181.16C325.221 2268.43 224.108 2433.33 172.564 2531.22C123.647 2624.22 115.656 2628.5 -13.7422 2689.95C-165.857 2762.23 -210.067 2786.14 -300.568 2841.69C-368.106 2883.14 -464.839 2949.27 -561.544 3074.4" stroke="url(#paint25_linear_237_5030)" stroke-width="5" stroke-miterlimit="10"/>
<path d="M1052.39 145.112C939.431 226.074 847.788 341.064 802.344 480.079C752.691 632.034 792.104 740.341 780.063 887.054C761.509 1113.64 787.442 1232.88 711.805 1352.59C604.584 1522.32 576.663 1687.11 528.196 1846.52C472.641 2029.15 504.312 2128.04 381.217 2214.59C278.295 2286.81 199.598 2456.88 149.102 2544.32C101.647 2626.77 92.078 2630.5 -47.1697 2690.38C-206.24 2758.74 -246.484 2780.8 -327.051 2829.36C-394.143 2869.77 -489.885 2934.53 -584.221 3060.77" stroke="url(#paint26_linear_237_5030)" stroke-width="5" stroke-miterlimit="10"/>
<path d="M1027.9 126.75C911.575 208.811 826.16 319.986 784.214 448.066C735.192 598.789 779.03 703.635 765.234 856.185C746.203 1066.48 759.775 1175.09 685.417 1296.92C572.276 1482.42 543.008 1660.72 495.271 1836.69C440.952 2036.75 474.275 2142.7 349.634 2247.34C250.748 2330.33 173.829 2479.77 124.728 2556.7C78.794 2628.69 67.5146 2632.09 -81.5364 2690.07C-247.583 2754.69 -283.914 2774.7 -354.486 2816.37C-421.14 2855.69 -515.837 2919.11 -607.823 3046.49" stroke="url(#paint27_linear_237_5030)" stroke-width="5" stroke-miterlimit="10"/>
<path d="M1001.86 107.232C882.194 190.365 802.901 297.645 764.852 415.089C716.442 564.608 764.871 665.991 749.154 824.379C729.945 1018.16 730.876 1116.33 657.756 1240.34C538.924 1441.87 508.035 1633.42 461.088 1825.87C407.984 2043.56 441.023 2155.99 316.792 2279.12C222.329 2372.74 147.041 2501.69 99.0822 2568.17C54.7359 2629.66 41.7128 2632.83 -117.175 2688.85C-290.183 2749.83 -322.742 2767.64 -383.18 2802.39C-449.474 2840.56 -543.168 2902.87 -632.684 3031.22" stroke="url(#paint28_linear_237_5030)" stroke-width="5" stroke-miterlimit="10"/>
<path d="M975.365 87.3733C852.342 171.605 779.223 275.03 744.878 381.653C697.107 529.986 750.347 627.948 732.461 792.112C713.149 969.554 701.479 1057.08 629.504 1183.28C505.352 1400.94 472.437 1605.74 426.319 1814.61C374.285 2050.08 405.608 2168.62 283.366 2310.45C193.657 2414.54 119.701 2523.24 72.8447 2579.15C30.1593 2630.16 15.346 2633.28 -153.405 2687.14C-333.469 2744.67 -362.195 2759.69 -412.486 2787.95C-478.461 2824.87 -570.917 2885.85 -658.157 3015.49" stroke="url(#paint29_linear_237_5030)" stroke-width="5" stroke-miterlimit="10"/>
<path d="M946.529 65.7587C820.172 151.109 753.422 250.7 722.588 346.48C675.755 493.729 733.818 588.195 713.452 758.11C694.155 919.221 669.811 996.079 598.915 1124.5C469.789 1358.4 434.455 1576.35 389.313 1801.51C338.509 2054.53 354.931 2171.6 247.702 2339.94C171.268 2459.89 90.1444 2542.92 44.3497 2588.32C3.31877 2628.96 -13.338 2631.99 -191.866 2683.64C-379.031 2737.71 -403.838 2750.06 -443.976 2771.7C-509.758 2807.15 -600.97 2867.19 -685.84 2997.94" stroke="url(#paint30_linear_237_5030)" stroke-width="5" stroke-miterlimit="10"/>
<path d="M917.987 44.3635C788.289 130.787 727.667 226.529 700.544 311.534C654.343 457.551 717.969 548.702 694.709 724.308C675.528 869.12 638.476 935.247 568.613 1065.9C434.773 1316.18 396.747 1547.21 352.368 1788.83C302.666 2059.68 319.896 2187.21 212.099 2369.85C137.17 2496.66 60.7946 2563.21 15.982 2597.87C-23.3879 2628.2 -41.8947 2631.25 -230.226 2680.5C-424.513 2731.32 -445.501 2740.62 -475.431 2755.86C-541.228 2789.38 -630.915 2848.94 -713.436 2980.84" stroke="url(#paint31_linear_237_5030)" stroke-width="5" stroke-miterlimit="10"/>
<path d="M889.418 22.9486C756.446 110.411 701.766 202.498 678.52 276.561C633.011 421.267 702.685 509.341 675.967 690.505C657.007 819.099 607.162 874.388 538.291 1007.32C400.102 1274.06 359.125 1518.18 315.549 1776.04C266.923 2064.7 284.908 2202.99 176.623 2399.65C102.78 2533.72 31.5977 2583.58 -12.326 2607.34C-49.8085 2627.6 -70.3253 2630.4 -268.527 2677.28C-469.982 2724.85 -487.131 2730.91 -506.761 2739.9C-573.15 2770.27 -660.788 2830.54 -740.959 2963.57" stroke="url(#paint32_linear_237_5030)" stroke-width="5" stroke-miterlimit="10"/>
<defs>
<linearGradient id="paint0_linear_237_5030" x1="716.468" y1="1991.31" x2="349.066" y2="1715.91" gradientUnits="userSpaceOnUse">
<stop stop-color="#690D53"/>
<stop offset="1" stop-color="#690D53" stop-opacity="0"/>
</linearGradient>
<linearGradient id="paint1_linear_237_5030" x1="703.84" y1="1979.14" x2="360.364" y2="1721.68" gradientUnits="userSpaceOnUse">
<stop stop-color="#690D53"/>
<stop offset="1" stop-color="#690D53" stop-opacity="0"/>
</linearGradient>
<linearGradient id="paint2_linear_237_5030" x1="693.405" y1="1968.57" x2="369.436" y2="1725.73" gradientUnits="userSpaceOnUse">
<stop stop-color="#690D53"/>
<stop offset="1" stop-color="#690D53" stop-opacity="0"/>
</linearGradient>
<linearGradient id="paint3_linear_237_5030" x1="685.683" y1="1960.04" x2="375.715" y2="1727.69" gradientUnits="userSpaceOnUse">
<stop stop-color="#690D53"/>
<stop offset="1" stop-color="#690D53" stop-opacity="0"/>
</linearGradient>
<linearGradient id="paint4_linear_237_5030" x1="679.646" y1="1952.77" x2="380.626" y2="1728.63" gradientUnits="userSpaceOnUse">
<stop stop-color="#690D53"/>
<stop offset="1" stop-color="#690D53" stop-opacity="0"/>
</linearGradient>
<linearGradient id="paint5_linear_237_5030" x1="684.04" y1="1953.38" x2="374.82" y2="1721.6" gradientUnits="userSpaceOnUse">
<stop stop-color="#690D53"/>
<stop offset="1" stop-color="#690D53" stop-opacity="0"/>
</linearGradient>
<linearGradient id="paint6_linear_237_5030" x1="693.85" y1="1957.97" x2="363.581" y2="1710.4" gradientUnits="userSpaceOnUse">
<stop stop-color="#690D53"/>
<stop offset="1" stop-color="#690D53" stop-opacity="0"/>
</linearGradient>
<linearGradient id="paint7_linear_237_5030" x1="704.088" y1="1962.84" x2="352.174" y2="1699.05" gradientUnits="userSpaceOnUse">
<stop stop-color="#690D53"/>
<stop offset="1" stop-color="#690D53" stop-opacity="0"/>
</linearGradient>
<linearGradient id="paint8_linear_237_5030" x1="714.412" y1="1967.94" x2="340.522" y2="1687.67" gradientUnits="userSpaceOnUse">
<stop stop-color="#690D53"/>
<stop offset="1" stop-color="#690D53" stop-opacity="0"/>
</linearGradient>
<linearGradient id="paint9_linear_237_5030" x1="724.973" y1="1973.25" x2="328.417" y2="1676" gradientUnits="userSpaceOnUse">
<stop stop-color="#690D53"/>
<stop offset="1" stop-color="#690D53" stop-opacity="0"/>
</linearGradient>
<linearGradient id="paint10_linear_237_5030" x1="736.1" y1="1978.68" x2="316.195" y2="1663.93" gradientUnits="userSpaceOnUse">
<stop stop-color="#690D53"/>
<stop offset="1" stop-color="#690D53" stop-opacity="0"/>
</linearGradient>
<linearGradient id="paint11_linear_237_5030" x1="747.576" y1="1984.44" x2="303.501" y2="1651.56" gradientUnits="userSpaceOnUse">
<stop stop-color="#690D53"/>
<stop offset="1" stop-color="#690D53" stop-opacity="0"/>
</linearGradient>
<linearGradient id="paint12_linear_237_5030" x1="759.131" y1="1990.54" x2="290.398" y2="1639.18" gradientUnits="userSpaceOnUse">
<stop stop-color="#690D53"/>
<stop offset="1" stop-color="#690D53" stop-opacity="0"/>
</linearGradient>
<linearGradient id="paint13_linear_237_5030" x1="771.181" y1="1996.83" x2="277.101" y2="1626.47" gradientUnits="userSpaceOnUse">
<stop stop-color="#690D53"/>
<stop offset="1" stop-color="#690D53" stop-opacity="0"/>
</linearGradient>
<linearGradient id="paint14_linear_237_5030" x1="783.449" y1="2003.2" x2="263.625" y2="1613.54" gradientUnits="userSpaceOnUse">
<stop stop-color="#690D53"/>
<stop offset="1" stop-color="#690D53" stop-opacity="0"/>
</linearGradient>
<linearGradient id="paint15_linear_237_5030" x1="795.806" y1="2009.76" x2="249.884" y2="1600.54" gradientUnits="userSpaceOnUse">
<stop stop-color="#690D53"/>
<stop offset="1" stop-color="#690D53" stop-opacity="0"/>
</linearGradient>
<linearGradient id="paint16_linear_237_5030" x1="808.297" y1="2016.48" x2="235.982" y2="1587.48" gradientUnits="userSpaceOnUse">
<stop stop-color="#690D53"/>
<stop offset="1" stop-color="#690D53" stop-opacity="0"/>
</linearGradient>
<linearGradient id="paint17_linear_237_5030" x1="779.734" y1="1996.79" x2="226.806" y2="1582.33" gradientUnits="userSpaceOnUse">
<stop stop-color="#690D53"/>
<stop offset="1" stop-color="#690D53" stop-opacity="0"/>
</linearGradient>
<linearGradient id="paint18_linear_237_5030" x1="751.52" y1="1977.29" x2="217.35" y2="1576.88" gradientUnits="userSpaceOnUse">
<stop stop-color="#690D53"/>
<stop offset="1" stop-color="#690D53" stop-opacity="0"/>
</linearGradient>
<linearGradient id="paint19_linear_237_5030" x1="729.43" y1="1962.43" x2="201.715" y2="1566.87" gradientUnits="userSpaceOnUse">
<stop stop-color="#690D53"/>
<stop offset="1" stop-color="#690D53" stop-opacity="0"/>
</linearGradient>
<linearGradient id="paint20_linear_237_5030" x1="714.861" y1="1953.2" x2="178.723" y2="1551.31" gradientUnits="userSpaceOnUse">
<stop stop-color="#690D53"/>
<stop offset="1" stop-color="#690D53" stop-opacity="0"/>
</linearGradient>
<linearGradient id="paint21_linear_237_5030" x1="700.629" y1="1944.13" x2="155.186" y2="1535.27" gradientUnits="userSpaceOnUse">
<stop stop-color="#690D53"/>
<stop offset="1" stop-color="#690D53" stop-opacity="0"/>
</linearGradient>
<linearGradient id="paint22_linear_237_5030" x1="686.875" y1="1935.51" x2="131.237" y2="1519" gradientUnits="userSpaceOnUse">
<stop stop-color="#690D53"/>
<stop offset="1" stop-color="#690D53" stop-opacity="0"/>
</linearGradient>
<linearGradient id="paint23_linear_237_5030" x1="673.454" y1="1927.23" x2="106.813" y2="1502.49" gradientUnits="userSpaceOnUse">
<stop stop-color="#690D53"/>
<stop offset="1" stop-color="#690D53" stop-opacity="0"/>
</linearGradient>
<linearGradient id="paint24_linear_237_5030" x1="660.41" y1="1919.14" x2="82.183" y2="1485.71" gradientUnits="userSpaceOnUse">
<stop stop-color="#690D53"/>
<stop offset="1" stop-color="#690D53" stop-opacity="0"/>
</linearGradient>
<linearGradient id="paint25_linear_237_5030" x1="647.661" y1="1911.27" x2="57.2339" y2="1468.69" gradientUnits="userSpaceOnUse">
<stop stop-color="#690D53"/>
<stop offset="1" stop-color="#690D53" stop-opacity="0"/>
</linearGradient>
<linearGradient id="paint26_linear_237_5030" x1="635.16" y1="1903.58" x2="32.0216" y2="1451.47" gradientUnits="userSpaceOnUse">
<stop stop-color="#690D53"/>
<stop offset="1" stop-color="#690D53" stop-opacity="0"/>
</linearGradient>
<linearGradient id="paint27_linear_237_5030" x1="623.359" y1="1896.44" x2="5.98623" y2="1433.66" gradientUnits="userSpaceOnUse">
<stop stop-color="#690D53"/>
<stop offset="1" stop-color="#690D53" stop-opacity="0"/>
</linearGradient>
<linearGradient id="paint28_linear_237_5030" x1="613.343" y1="1890.62" x2="-21.5857" y2="1414.68" gradientUnits="userSpaceOnUse">
<stop stop-color="#690D53"/>
<stop offset="1" stop-color="#690D53" stop-opacity="0"/>
</linearGradient>
<linearGradient id="paint29_linear_237_5030" x1="603.669" y1="1885.05" x2="-49.6107" y2="1395.36" gradientUnits="userSpaceOnUse">
<stop stop-color="#690D53"/>
<stop offset="1" stop-color="#690D53" stop-opacity="0"/>
</linearGradient>
<linearGradient id="paint30_linear_237_5030" x1="596.289" y1="1881.12" x2="-79.865" y2="1374.28" gradientUnits="userSpaceOnUse">
<stop stop-color="#690D53"/>
<stop offset="1" stop-color="#690D53" stop-opacity="0"/>
</linearGradient>
<linearGradient id="paint31_linear_237_5030" x1="588.621" y1="1877.16" x2="-110.001" y2="1353.48" gradientUnits="userSpaceOnUse">
<stop stop-color="#690D53"/>
<stop offset="1" stop-color="#690D53" stop-opacity="0"/>
</linearGradient>
<linearGradient id="paint32_linear_237_5030" x1="581.016" y1="1873.14" x2="-140.101" y2="1332.6" gradientUnits="userSpaceOnUse">
<stop stop-color="#690D53"/>
<stop offset="1" stop-color="#690D53" stop-opacity="0"/>
</linearGradient>
</defs>
</svg>
