<svg width="1392" height="1540" viewBox="0 0 1392 1540" fill="none" xmlns="http://www.w3.org/2000/svg">
<path d="M554.691 1429.11C611.383 1157.47 557.389 1007.75 495.743 920.769C426.941 823.696 317.776 761.282 334.466 727.224C345.152 705.415 399.808 710.855 513.734 730.35C859.204 789.46 926.283 836.877 986.354 794.32C1070.52 734.717 996.993 600.453 1092.53 482.522C1162.7 395.909 1279.8 372.722 1372 367.411" stroke="url(#paint0_linear_237_5006)" stroke-width="5" stroke-miterlimit="10"/>
<path d="M541.336 1426.31C595.794 1161.82 547.77 1010.55 492.683 925.576C431.12 830.613 327.144 772.002 345.292 739.567C356.958 718.713 410.648 724.099 520.677 742.917C855.022 800.073 923.658 847.152 982.566 804.378C1065.89 743.396 982.714 604.988 1075.23 482.669C1077.25 480.003 1079.27 477.404 1081.36 474.858C1150.54 390.823 1268.46 366.645 1361.11 360.045" stroke="url(#paint1_linear_237_5006)" stroke-width="5" stroke-miterlimit="10"/>
<path d="M527.993 1423.49C580.214 1166.18 538.292 1013.55 489.638 930.375C435.405 837.661 336.541 782.71 356.134 751.902C368.787 731.999 421.517 737.331 527.637 755.481C850.824 810.7 921.21 857.629 978.795 814.414C1061.51 752.343 968.411 609.432 1057.94 482.793C1059.91 480.014 1061.86 477.243 1063.96 474.58C1132.33 387.641 1254.44 360.701 1350.24 352.66" stroke="url(#paint2_linear_237_5006)" stroke-width="5" stroke-miterlimit="10"/>
<path d="M514.642 1420.68C564.62 1170.5 528.95 1016.82 486.588 935.181C439.744 844.905 345.949 793.421 366.97 764.251C380.626 745.297 432.361 750.589 534.588 768.05C846.656 821.338 918.666 867.987 975.018 824.458C1056.99 761.138 954.063 613.831 1040.65 482.925C1042.57 480.019 1044.5 477.122 1046.53 474.323C1112.69 383.394 1240.41 354.779 1339.34 345.294" stroke="url(#paint3_linear_237_5006)" stroke-width="5" stroke-miterlimit="10"/>
<path d="M501.292 1417.87C549.045 1174.85 519.732 1020.4 483.536 939.989C444.103 852.384 355.379 804.128 377.81 776.594C392.474 758.589 443.219 763.836 541.546 780.618C842.476 831.966 916.117 878.334 971.239 834.499C1052.48 769.896 939.676 618.177 1023.35 483.046C1025.23 480.017 1027.12 476.985 1029.12 474.031C1093.81 379.697 1226.39 348.829 1328.47 337.902" stroke="url(#paint4_linear_237_5006)" stroke-width="5" stroke-miterlimit="10"/>
<path d="M487.942 1415.06C533.468 1179.19 510.625 1024.33 480.494 944.791C448.428 860.147 364.818 814.841 388.651 788.93C404.339 771.877 454.075 777.078 548.505 793.182C838.304 842.585 913.565 888.661 967.468 844.535C1047.95 778.645 925.248 622.479 1006.07 483.177C1007.9 480.011 1009.73 476.841 1011.72 473.759C1074.96 376.04 1212.38 342.882 1317.6 330.525" stroke="url(#paint5_linear_237_5006)" stroke-width="5" stroke-miterlimit="10"/>
<path d="M474.594 1412.25C517.881 1183.53 501.585 1028.68 477.44 949.602C452.597 868.245 374.285 825.548 399.486 801.28C416.207 785.175 464.937 790.338 555.453 805.756C834.117 853.216 911 898.986 963.684 854.581C1043.42 787.379 910.773 626.757 988.77 483.313C990.569 480.006 992.343 476.708 994.306 473.5C1056.1 372.417 1198.36 336.962 1306.72 323.158" stroke="url(#paint6_linear_237_5006)" stroke-width="5" stroke-miterlimit="10"/>
<path d="M461.244 1409.44C502.297 1187.88 477.199 1035.49 474.391 954.407C442.098 881.512 383.765 836.27 410.323 813.622C428.087 798.474 475.782 803.576 562.425 818.335C829.952 863.856 908.442 909.308 959.923 864.636C1038.89 796.111 896.274 631.012 971.49 483.458C973.24 480.027 974.977 476.583 976.912 473.235C1037.29 368.802 1184.36 331.012 1295.86 315.783" stroke="url(#paint7_linear_237_5006)" stroke-width="5" stroke-miterlimit="10"/>
<path d="M447.894 1406.63C486.715 1192.22 465.742 1039.44 471.341 959.212C444.264 889.77 393.259 847.003 421.162 825.965C439.978 811.777 486.629 816.819 569.365 830.894C825.747 874.487 905.851 919.594 956.134 874.664C1034.32 804.802 881.705 635.217 954.183 483.576C955.885 480.014 957.576 476.435 959.485 472.951C1018.48 365.183 1170.32 325.075 1284.96 308.394" stroke="url(#paint8_linear_237_5006)" stroke-width="5" stroke-miterlimit="10"/>
<path d="M434.544 1403.82C471.13 1196.56 454.287 1043.41 468.29 964.02C446.426 898.03 402.765 857.745 431.999 838.307C451.873 825.088 497.486 830.065 576.317 843.462C821.588 885.107 903.262 929.877 952.352 884.702C1029.75 813.485 867.108 639.415 936.885 483.702C938.541 480.011 940.192 476.296 942.071 472.675C999.691 361.585 1156.29 319.134 1274.08 301.013" stroke="url(#paint9_linear_237_5006)" stroke-width="5" stroke-miterlimit="10"/>
<path d="M421.196 1401.01C455.549 1200.9 442.831 1047.37 465.242 968.829C448.594 906.292 412.286 868.506 442.835 850.655C463.78 838.414 508.345 843.317 583.265 856.025C817.39 895.723 900.659 940.147 948.569 894.741C1025.16 822.153 852.471 643.593 919.586 483.829C921.193 480.001 922.806 476.159 924.65 472.402C980.92 357.994 1142.27 313.194 1263.19 293.633" stroke="url(#paint10_linear_237_5006)" stroke-width="5" stroke-miterlimit="10"/>
<path d="M407.843 1398.2C439.963 1205.25 431.381 1051.32 462.207 973.641C450.775 914.557 421.823 879.281 453.684 863.011C475.703 851.761 519.209 856.573 590.238 868.614C813.229 906.369 898.07 950.431 944.813 904.795C1020.59 830.821 837.834 647.783 902.314 483.975C903.876 480.013 905.437 476.05 907.271 472.154C962.204 354.437 1128.27 307.278 1252.34 286.277" stroke="url(#paint11_linear_237_5006)" stroke-width="5" stroke-miterlimit="10"/>
<path d="M394.493 1395.39C424.381 1209.59 419.917 1055.29 459.144 978.44C452.927 922.81 431.339 890.065 464.511 875.341C487.606 865.092 530.054 869.811 597.184 881.172C809.049 916.973 895.447 960.673 941.023 914.831C1015.96 839.453 823.113 651.937 885.011 484.097C886.518 480.003 888.054 475.898 889.846 471.856C943.471 350.846 1114.23 301.308 1241.45 278.877" stroke="url(#paint12_linear_237_5006)" stroke-width="5" stroke-miterlimit="10"/>
<path d="M381.15 1392.57C408.797 1213.93 408.463 1059.25 456.1 983.249C455.098 931.075 440.869 900.867 475.351 887.684C499.525 878.443 540.909 883.056 604.139 893.737C804.863 927.609 892.831 970.925 937.248 924.873C1011.34 848.074 808.367 656.084 867.716 484.229C869.175 479.999 870.673 475.761 872.428 471.591C924.743 347.279 1100.21 295.386 1230.58 271.49" stroke="url(#paint13_linear_237_5006)" stroke-width="5" stroke-miterlimit="10"/>
<path d="M367.795 1389.77C393.213 1218.27 397.008 1063.21 453.048 988.052C457.261 939.332 450.397 911.678 486.196 900.033C511.446 891.812 551.769 896.305 611.09 906.324C800.68 938.254 890.184 981.173 933.465 934.93C1006.69 856.698 793.621 660.269 850.418 484.373C851.829 480.011 853.291 475.643 855.011 471.337C906.042 343.726 1086.19 289.465 1219.69 264.143" stroke="url(#paint14_linear_237_5006)" stroke-width="5" stroke-miterlimit="10"/>
<path d="M354.445 1386.96C377.628 1222.62 385.551 1067.17 449.996 992.86C459.428 947.59 459.921 922.505 497.027 912.37C523.353 905.179 562.618 909.55 618.051 918.875C796.501 948.863 887.541 991.386 929.695 944.953C1002.03 865.273 778.828 664.399 833.143 484.499C834.503 480.003 835.931 475.503 837.631 471.047C887.361 340.146 1072.17 283.51 1208.8 256.74" stroke="url(#paint15_linear_237_5006)" stroke-width="5" stroke-miterlimit="10"/>
<path d="M341.095 1384.15C362.049 1226.96 374.106 1071.14 446.947 997.665C461.572 955.86 469.445 933.346 507.867 924.714C535.262 918.562 573.472 922.795 624.994 931.437C792.31 959.482 884.875 1001.6 925.904 954.985C997.331 873.84 763.999 668.544 815.825 484.608C817.13 479.976 818.526 475.349 820.182 470.768C868.691 336.584 1058.16 277.565 1197.93 249.371" stroke="url(#paint16_linear_237_5006)" stroke-width="5" stroke-miterlimit="10"/>
<path d="M327.733 1381.33C346.453 1231.29 362.628 1075.09 443.886 1002.47C463.744 964.105 478.947 944.184 518.687 937.052C547.141 931.93 584.313 936.034 631.944 944.008C788.123 970.108 882.206 1011.82 922.126 965.03C992.637 882.412 749.171 672.708 798.55 484.752C799.799 479.987 801.166 475.228 802.786 470.512C850.04 333.022 1044.14 271.639 1187.06 242.004" stroke="url(#paint17_linear_237_5006)" stroke-width="5" stroke-miterlimit="10"/>
<path d="M314.387 1378.52C330.891 1235.66 387.14 1108.81 440.85 1007.28C460.947 969.287 488.472 955.047 529.539 949.403C559.059 945.331 595.183 949.289 638.914 956.583C783.962 980.748 879.541 1022.03 918.362 975.08C987.908 890.963 734.306 676.864 781.248 484.877C782.447 479.983 783.785 475.085 785.368 470.235C831.386 329.455 1030.1 265.708 1176.17 234.613" stroke="url(#paint18_linear_237_5006)" stroke-width="5" stroke-miterlimit="10"/>
<path d="M301.04 1375.72C315.296 1239.98 346.411 1091.46 437.795 1012.08C470.762 983.446 497.969 965.904 540.373 961.743C570.954 958.727 606.029 962.532 645.864 969.149C779.779 991.368 876.844 1032.23 914.578 985.116C983.149 899.498 719.416 681.022 763.948 485.006C765.095 479.972 766.41 474.953 767.953 469.96C813.034 325.98 1016.09 259.76 1165.3 227.227" stroke="url(#paint19_linear_237_5006)" stroke-width="5" stroke-miterlimit="10"/>
<path d="M287.693 1372.91C299.71 1244.33 331.365 1091.47 434.748 1016.89C471.422 990.434 507.47 976.774 551.213 974.086C582.851 972.132 616.889 975.781 652.819 981.719C775.603 1002 874.352 1042.59 910.805 995.161C977.998 907.732 704.229 685.133 746.659 485.138C747.74 479.971 749.035 474.822 750.542 469.692C794.273 322.365 1002.06 253.821 1154.41 219.855" stroke="url(#paint20_linear_237_5006)" stroke-width="5" stroke-miterlimit="10"/>
<path d="M274.346 1370.1C284.132 1248.67 316.821 1090.95 431.702 1021.7C604.896 917.31 847.145 1085 907.031 1005.2C975.299 914.236 674.613 677.479 733.134 469.421C775.512 318.756 988.055 247.872 1143.53 212.482" stroke="url(#paint21_linear_237_5006)" stroke-width="5" stroke-miterlimit="10"/>
<defs>
<linearGradient id="paint0_linear_237_5006" x1="488.27" y1="528.847" x2="965.919" y2="900.263" gradientUnits="userSpaceOnUse">
<stop stop-color="#570E47"/>
<stop offset="1" stop-color="#570E47" stop-opacity="0"/>
</linearGradient>
<linearGradient id="paint1_linear_237_5006" x1="499.023" y1="541.548" x2="954.135" y2="895.44" gradientUnits="userSpaceOnUse">
<stop stop-color="#570E47"/>
<stop offset="1" stop-color="#570E47" stop-opacity="0"/>
</linearGradient>
<linearGradient id="paint2_linear_237_5006" x1="509.758" y1="554.209" x2="942.363" y2="890.6" gradientUnits="userSpaceOnUse">
<stop stop-color="#570E47"/>
<stop offset="1" stop-color="#570E47" stop-opacity="0"/>
</linearGradient>
<linearGradient id="paint3_linear_237_5006" x1="520.444" y1="566.86" x2="930.647" y2="885.831" gradientUnits="userSpaceOnUse">
<stop stop-color="#570E47"/>
<stop offset="1" stop-color="#570E47" stop-opacity="0"/>
</linearGradient>
<linearGradient id="paint4_linear_237_5006" x1="531.096" y1="579.458" x2="930.76" y2="890.234" gradientUnits="userSpaceOnUse">
<stop stop-color="#570E47"/>
<stop offset="1" stop-color="#570E47" stop-opacity="0"/>
</linearGradient>
<linearGradient id="paint5_linear_237_5006" x1="541.687" y1="592.015" x2="930.909" y2="894.672" gradientUnits="userSpaceOnUse">
<stop stop-color="#570E47"/>
<stop offset="1" stop-color="#570E47" stop-opacity="0"/>
</linearGradient>
<linearGradient id="paint6_linear_237_5006" x1="552.215" y1="604.536" x2="931.083" y2="899.141" gradientUnits="userSpaceOnUse">
<stop stop-color="#570E47"/>
<stop offset="1" stop-color="#570E47" stop-opacity="0"/>
</linearGradient>
<linearGradient id="paint7_linear_237_5006" x1="562.645" y1="616.966" x2="931.309" y2="903.636" gradientUnits="userSpaceOnUse">
<stop stop-color="#570E47"/>
<stop offset="1" stop-color="#570E47" stop-opacity="0"/>
</linearGradient>
<linearGradient id="paint8_linear_237_5006" x1="572.992" y1="629.338" x2="931.527" y2="908.133" gradientUnits="userSpaceOnUse">
<stop stop-color="#570E47"/>
<stop offset="1" stop-color="#570E47" stop-opacity="0"/>
</linearGradient>
<linearGradient id="paint9_linear_237_5006" x1="583.218" y1="641.617" x2="931.777" y2="912.654" gradientUnits="userSpaceOnUse">
<stop stop-color="#570E47"/>
<stop offset="1" stop-color="#570E47" stop-opacity="0"/>
</linearGradient>
<linearGradient id="paint10_linear_237_5006" x1="593.298" y1="653.782" x2="932.047" y2="917.191" gradientUnits="userSpaceOnUse">
<stop stop-color="#570E47"/>
<stop offset="1" stop-color="#570E47" stop-opacity="0"/>
</linearGradient>
<linearGradient id="paint11_linear_237_5006" x1="603.198" y1="665.807" x2="932.36" y2="921.761" gradientUnits="userSpaceOnUse">
<stop stop-color="#570E47"/>
<stop offset="1" stop-color="#570E47" stop-opacity="0"/>
</linearGradient>
<linearGradient id="paint12_linear_237_5006" x1="612.822" y1="677.611" x2="932.663" y2="926.317" gradientUnits="userSpaceOnUse">
<stop stop-color="#570E47"/>
<stop offset="1" stop-color="#570E47" stop-opacity="0"/>
</linearGradient>
<linearGradient id="paint13_linear_237_5006" x1="622.114" y1="689.148" x2="932.998" y2="930.889" gradientUnits="userSpaceOnUse">
<stop stop-color="#570E47"/>
<stop offset="1" stop-color="#570E47" stop-opacity="0"/>
</linearGradient>
<linearGradient id="paint14_linear_237_5006" x1="630.89" y1="700.325" x2="933.33" y2="935.5" gradientUnits="userSpaceOnUse">
<stop stop-color="#570E47"/>
<stop offset="1" stop-color="#570E47" stop-opacity="0"/>
</linearGradient>
<linearGradient id="paint15_linear_237_5006" x1="638.942" y1="710.904" x2="933.683" y2="940.092" gradientUnits="userSpaceOnUse">
<stop stop-color="#570E47"/>
<stop offset="1" stop-color="#570E47" stop-opacity="0"/>
</linearGradient>
<linearGradient id="paint16_linear_237_5006" x1="625.68" y1="704.918" x2="934.036" y2="944.694" gradientUnits="userSpaceOnUse">
<stop stop-color="#570E47"/>
<stop offset="1" stop-color="#570E47" stop-opacity="0"/>
</linearGradient>
<linearGradient id="paint17_linear_237_5006" x1="611.785" y1="698.44" x2="934.416" y2="949.316" gradientUnits="userSpaceOnUse">
<stop stop-color="#570E47"/>
<stop offset="1" stop-color="#570E47" stop-opacity="0"/>
</linearGradient>
<linearGradient id="paint18_linear_237_5006" x1="597.855" y1="691.933" x2="934.82" y2="953.955" gradientUnits="userSpaceOnUse">
<stop stop-color="#570E47"/>
<stop offset="1" stop-color="#570E47" stop-opacity="0"/>
</linearGradient>
<linearGradient id="paint19_linear_237_5006" x1="583.993" y1="685.474" x2="935.217" y2="958.583" gradientUnits="userSpaceOnUse">
<stop stop-color="#570E47"/>
<stop offset="1" stop-color="#570E47" stop-opacity="0"/>
</linearGradient>
<linearGradient id="paint20_linear_237_5006" x1="569.999" y1="678.926" x2="935.629" y2="963.237" gradientUnits="userSpaceOnUse">
<stop stop-color="#570E47"/>
<stop offset="1" stop-color="#570E47" stop-opacity="0"/>
</linearGradient>
<linearGradient id="paint21_linear_237_5006" x1="555.992" y1="672.362" x2="936.051" y2="967.892" gradientUnits="userSpaceOnUse">
<stop stop-color="#570E47"/>
<stop offset="1" stop-color="#570E47" stop-opacity="0"/>
</linearGradient>
</defs>
</svg>
